<?xml version="1.0" encoding="UTF-8"?>
<svg version="1.1" xmlns="http://www.w3.org/2000/svg" width="1508" height="496">
<path d="M0 0 C497.64 0 995.28 0 1508 0 C1508 163.68 1508 327.36 1508 496 C1010.36 496 512.72 496 0 496 C0 332.32 0 168.64 0 0 Z " fill="#481E7B" transform="translate(0,0)"/>
<path d="M0 0 C1.0330696 -0.0043933 1.0330696 -0.0043933 2.0870093 -0.00887535 C4.40448111 -0.01627648 6.72169076 -0.00939279 9.03916138 -0.0026266 C10.72071044 -0.00501554 12.40225844 -0.00828014 14.08380428 -0.0123432 C18.72945451 -0.0209998 23.3750244 -0.01712164 28.02067596 -0.01128747 C33.0654278 -0.00713165 38.11016459 -0.01451088 43.15491283 -0.02043998 C52.00479611 -0.02922271 60.85465626 -0.03050676 69.70454282 -0.02693671 C82.86451253 -0.02164191 96.02445974 -0.02771266 109.18442701 -0.03601964 C133.36848962 -0.05086489 157.55254426 -0.05310695 181.73660981 -0.05069926 C185.16457992 -0.05036083 188.59255003 -0.05003873 192.02052015 -0.04973358 C193.04180534 -0.04964201 193.04180534 -0.04964201 194.08372256 -0.0495486 C209.16510578 -0.0482773 224.24648759 -0.050877 239.3278704 -0.05425965 C242.77035333 -0.05503039 246.21283627 -0.05577511 249.65531921 -0.05652466 C251.03690312 -0.05682635 252.41848703 -0.05712823 253.80007094 -0.0574303 C254.82730254 -0.05765482 254.82730254 -0.05765482 255.8752863 -0.05788388 C257.26047356 -0.05818741 258.64566083 -0.05849209 260.03084809 -0.05879792 C299.34321253 -0.06747293 338.65557571 -0.07211344 377.96794099 -0.06785029 C378.69611466 -0.06777223 379.42428833 -0.06769418 380.17452788 -0.06761376 C388.29466342 -0.06674094 396.41479896 -0.06581167 404.5349345 -0.06486312 C405.26808013 -0.06477761 406.00122577 -0.0646921 406.75658793 -0.064604 C412.8488417 -0.06389316 412.8488417 -0.06389316 415.65130276 -0.06356178 C462.54746372 -0.05802579 509.44360499 -0.06556791 556.33976239 -0.08433264 C568.15576837 -0.08905476 579.97177437 -0.09373522 591.78778046 -0.09816951 C592.51531234 -0.09844283 593.24284421 -0.09871615 593.99242251 -0.09899775 C616.41087679 -0.1073674 638.82932944 -0.11204856 661.24778527 -0.11287707 C661.95150011 -0.11290344 662.65521494 -0.1129298 663.38025447 -0.11295697 C678.82752175 -0.11349772 694.27478889 -0.11312536 709.72205613 -0.11191725 C715.24919349 -0.11149162 720.77633086 -0.1111265 726.30346822 -0.11078781 C727.67851033 -0.11070251 729.05355244 -0.11061358 730.42859455 -0.11052099 C752.34983204 -0.1090715 774.27105616 -0.11620318 796.19229044 -0.12752496 C818.88133458 -0.13916741 841.57036035 -0.13974622 864.25940559 -0.12768153 C877.3463069 -0.12103472 890.43314534 -0.12272581 903.52004167 -0.13627005 C912.25343819 -0.14448229 920.98678736 -0.1418592 929.72017999 -0.13029478 C934.70168225 -0.1240062 939.68306139 -0.1225199 944.66455678 -0.13415811 C949.19401598 -0.14464327 953.72324695 -0.14138878 958.25269369 -0.12705358 C959.88333183 -0.12431913 961.51398804 -0.12663765 963.14460922 -0.13456073 C972.70424112 -0.1778496 980.11623529 0.0071108 988.32877606 5.376849 C994.96816754 12.31803099 995.68087391 19.882598 995.61002606 29.15419275 C995.61385297 30.27193582 995.61767987 31.38967889 995.62162274 32.54129297 C995.62433197 34.89363271 995.61704055 37.24600309 995.60026044 39.59828454 C995.57885859 43.17555502 995.60008728 46.75081259 995.62565106 50.32802087 C995.62300722 52.62424921 995.61788107 54.92047632 995.61002606 57.21669275 C995.61812299 58.27428293 995.62621991 59.3318731 995.63456219 60.42151147 C995.54882645 67.297936 994.50659786 73.20017426 991.07877606 79.251849 C988.51627606 81.189349 988.51627606 81.189349 986.07877606 82.251849 C985.36721356 83.0252865 985.36721356 83.0252865 984.64127606 83.814349 C980.62438144 87.50989205 975.21165827 87.50217941 970.03105229 87.50369799 C969.34081267 87.50662686 968.65057306 87.50955572 967.93941709 87.51257334 C965.62277523 87.51995936 963.30639685 87.51309762 960.98975629 87.50632459 C959.30643649 87.50871414 957.62311775 87.51197913 955.93980116 87.51604119 C951.29391015 87.52468941 946.64809957 87.52082307 942.00220725 87.51498547 C936.9554857 87.51082668 931.90877915 87.51821055 926.8620612 87.52413797 C918.01032996 87.53291741 909.15862185 87.53420591 900.30688733 87.5306347 C887.14429275 87.52533824 873.98172065 87.5314123 860.81912851 87.53971763 C836.63072928 87.55455976 812.44233802 87.55680532 788.25393585 87.55439725 C784.8258822 87.55405882 781.39782855 87.55373672 777.9697749 87.55343157 C777.2889011 87.55337053 776.6080273 87.55330948 775.90652097 87.55324659 C760.8234363 87.55197518 745.74035305 87.55457517 730.65726881 87.55795764 C727.21422566 87.55872837 723.77118251 87.5594731 720.32813936 87.56022265 C718.94633275 87.56052434 717.56452613 87.56082622 716.18271951 87.56112829 C715.49778834 87.56127797 714.81285717 87.56142765 714.10717051 87.56158187 C712.72176026 87.5618854 711.33635 87.56219008 709.95093975 87.56249591 C670.63524483 87.57117026 631.31955116 87.57581184 592.00385541 87.57154828 C591.27568954 87.57147023 590.54752368 87.57139217 589.79729218 87.57131175 C581.67725938 87.57043893 573.5572266 87.56950967 565.43719381 87.56856111 C564.70405817 87.56847561 563.97092253 87.5683901 563.21557066 87.568302 C557.12337703 87.56759115 557.12337703 87.56759115 554.3209791 87.56725977 C507.41797138 87.56172289 460.51498335 87.56926872 413.61197919 87.58803064 C401.79255174 87.59275272 389.97312428 87.59743317 378.15369672 87.6018675 C377.06209459 87.60227748 377.06209459 87.60227748 375.9484399 87.60269575 C353.52623788 87.61106447 331.1040375 87.61574646 308.68183392 87.61657506 C307.97807914 87.61660143 307.27432435 87.6166278 306.54924366 87.61665496 C291.10169984 87.61719569 275.65415615 87.6168234 260.20661238 87.61561525 C254.67953459 87.61518961 249.1524568 87.61482449 243.62537901 87.61448581 C242.25034711 87.6144005 240.87531521 87.61431157 239.50028331 87.61421899 C217.57432789 87.61276917 195.64838582 87.61990319 173.7224336 87.63122295 C151.03216017 87.64286147 128.34190511 87.64344848 105.65163058 87.63137952 C92.56208184 87.62472948 79.47259593 87.62643118 66.38305216 87.63996804 C57.65047913 87.64817389 48.91795347 87.64556565 40.18538434 87.63399277 C35.20272963 87.6276978 30.22019809 87.62623399 25.2375502 87.6378561 C20.70939879 87.64832145 16.181476 87.64511208 11.65333715 87.63075158 C10.02093195 87.62801126 8.38850877 87.63035315 6.75612041 87.63825872 C4.545967 87.64823622 2.33661966 87.63981853 0.12649983 87.62674582 C-1.09910132 87.62676628 -2.32470247 87.62678674 -3.58744305 87.62680783 C-10.9272962 86.80127584 -15.14375832 82.62448582 -19.67122394 77.126849 C-21.95565602 73.70020087 -22.05104265 70.77667832 -22.06648761 66.77406579 C-22.07286746 65.65247567 -22.07924731 64.53088556 -22.0858205 63.37530786 C-22.08693332 62.16280862 -22.08804614 60.95030938 -22.08919269 59.70106775 C-22.09252109 58.45436807 -22.09584949 57.20766839 -22.09927875 55.92318994 C-22.10434618 53.2827881 -22.1071192 50.64248915 -22.10652667 48.00209314 C-22.10644538 45.29890012 -22.1133896 42.59587643 -22.12703449 39.89271814 C-22.14535834 35.99544861 -22.15026353 32.09837606 -22.15169269 28.20106775 C-22.1588782 26.9946412 -22.16606372 25.78821466 -22.17346698 24.54522973 C-22.17039035 23.41418313 -22.16731372 22.28313653 -22.16414386 21.11781579 C-22.16556888 20.1275892 -22.1669939 19.13736261 -22.1684621 18.11712915 C-21.80579734 13.91415282 -20.93496181 10.42447293 -18.15169269 7.204974 C-17.477513 6.64294275 -16.80333331 6.0809115 -16.10872394 5.501849 C-15.44227863 4.92950525 -14.77583331 4.3571615 -14.08919269 3.767474 C-9.48174473 0.54641128 -5.5696177 0.001633 0 0 Z " fill="#292468" transform="translate(270.9212239384651,278.7481510043144)"/>
<path d="M0 0 C1.0330696 -0.0043933 1.0330696 -0.0043933 2.0870093 -0.00887535 C4.40448111 -0.01627648 6.72169076 -0.00939279 9.03916138 -0.0026266 C10.72071044 -0.00501554 12.40225844 -0.00828014 14.08380428 -0.0123432 C18.72945451 -0.0209998 23.3750244 -0.01712164 28.02067596 -0.01128747 C33.0654278 -0.00713165 38.11016459 -0.01451088 43.15491283 -0.02043998 C52.00479611 -0.02922271 60.85465626 -0.03050676 69.70454282 -0.02693671 C82.86451253 -0.02164191 96.02445974 -0.02771266 109.18442701 -0.03601964 C133.36848962 -0.05086489 157.55254426 -0.05310695 181.73660981 -0.05069926 C185.16457992 -0.05036083 188.59255003 -0.05003873 192.02052015 -0.04973358 C193.04180534 -0.04964201 193.04180534 -0.04964201 194.08372256 -0.0495486 C209.16510578 -0.0482773 224.24648759 -0.050877 239.3278704 -0.05425965 C242.77035333 -0.05503039 246.21283627 -0.05577511 249.65531921 -0.05652466 C251.03690312 -0.05682635 252.41848703 -0.05712823 253.80007094 -0.0574303 C254.82730254 -0.05765482 254.82730254 -0.05765482 255.8752863 -0.05788388 C257.26047356 -0.05818741 258.64566083 -0.05849209 260.03084809 -0.05879792 C299.34321253 -0.06747293 338.65557571 -0.07211344 377.96794099 -0.06785029 C378.69611466 -0.06777223 379.42428833 -0.06769418 380.17452788 -0.06761376 C388.29466342 -0.06674094 396.41479896 -0.06581167 404.5349345 -0.06486312 C405.26808013 -0.06477761 406.00122577 -0.0646921 406.75658793 -0.064604 C412.8488417 -0.06389316 412.8488417 -0.06389316 415.65130276 -0.06356178 C462.54746372 -0.05802579 509.44360499 -0.06556791 556.33976239 -0.08433264 C568.15576837 -0.08905476 579.97177437 -0.09373522 591.78778046 -0.09816951 C592.51531234 -0.09844283 593.24284421 -0.09871615 593.99242251 -0.09899775 C616.41087679 -0.1073674 638.82932944 -0.11204856 661.24778527 -0.11287707 C661.95150011 -0.11290344 662.65521494 -0.1129298 663.38025447 -0.11295697 C678.82752175 -0.11349772 694.27478889 -0.11312536 709.72205613 -0.11191725 C715.24919349 -0.11149162 720.77633086 -0.1111265 726.30346822 -0.11078781 C727.67851033 -0.11070251 729.05355244 -0.11061358 730.42859455 -0.11052099 C752.34983204 -0.1090715 774.27105616 -0.11620318 796.19229044 -0.12752496 C818.88133458 -0.13916741 841.57036035 -0.13974622 864.25940559 -0.12768153 C877.3463069 -0.12103472 890.43314534 -0.12272581 903.52004167 -0.13627005 C912.25343819 -0.14448229 920.98678736 -0.1418592 929.72017999 -0.13029478 C934.70168225 -0.1240062 939.68306139 -0.1225199 944.66455678 -0.13415811 C949.19401598 -0.14464327 953.72324695 -0.14138878 958.25269369 -0.12705358 C959.88333183 -0.12431913 961.51398804 -0.12663765 963.14460922 -0.13456073 C972.70424112 -0.1778496 980.11623529 0.0071108 988.32877606 5.376849 C994.96816754 12.31803099 995.68087391 19.882598 995.61002606 29.15419275 C995.61385297 30.27193582 995.61767987 31.38967889 995.62162274 32.54129297 C995.62433197 34.89363271 995.61704055 37.24600309 995.60026044 39.59828454 C995.57885859 43.17555502 995.60008728 46.75081259 995.62565106 50.32802087 C995.62300722 52.62424921 995.61788107 54.92047632 995.61002606 57.21669275 C995.61812299 58.27428293 995.62621991 59.3318731 995.63456219 60.42151147 C995.54882645 67.297936 994.50659786 73.20017426 991.07877606 79.251849 C988.51627606 81.189349 988.51627606 81.189349 986.07877606 82.251849 C985.36721356 83.0252865 985.36721356 83.0252865 984.64127606 83.814349 C980.62438144 87.50989205 975.21165827 87.50217941 970.03105229 87.50369799 C969.34081267 87.50662686 968.65057306 87.50955572 967.93941709 87.51257334 C965.62277523 87.51995936 963.30639685 87.51309762 960.98975629 87.50632459 C959.30643649 87.50871414 957.62311775 87.51197913 955.93980116 87.51604119 C951.29391015 87.52468941 946.64809957 87.52082307 942.00220725 87.51498547 C936.9554857 87.51082668 931.90877915 87.51821055 926.8620612 87.52413797 C918.01032996 87.53291741 909.15862185 87.53420591 900.30688733 87.5306347 C887.14429275 87.52533824 873.98172065 87.5314123 860.81912851 87.53971763 C836.63072928 87.55455976 812.44233802 87.55680532 788.25393585 87.55439725 C784.8258822 87.55405882 781.39782855 87.55373672 777.9697749 87.55343157 C777.2889011 87.55337053 776.6080273 87.55330948 775.90652097 87.55324659 C760.8234363 87.55197518 745.74035305 87.55457517 730.65726881 87.55795764 C727.21422566 87.55872837 723.77118251 87.5594731 720.32813936 87.56022265 C718.94633275 87.56052434 717.56452613 87.56082622 716.18271951 87.56112829 C715.49778834 87.56127797 714.81285717 87.56142765 714.10717051 87.56158187 C712.72176026 87.5618854 711.33635 87.56219008 709.95093975 87.56249591 C670.63524483 87.57117026 631.31955116 87.57581184 592.00385541 87.57154828 C591.27568954 87.57147023 590.54752368 87.57139217 589.79729218 87.57131175 C581.67725938 87.57043893 573.5572266 87.56950967 565.43719381 87.56856111 C564.70405817 87.56847561 563.97092253 87.5683901 563.21557066 87.568302 C557.12337703 87.56759115 557.12337703 87.56759115 554.3209791 87.56725977 C507.41797138 87.56172289 460.51498335 87.56926872 413.61197919 87.58803064 C401.79255174 87.59275272 389.97312428 87.59743317 378.15369672 87.6018675 C377.06209459 87.60227748 377.06209459 87.60227748 375.9484399 87.60269575 C353.52623788 87.61106447 331.1040375 87.61574646 308.68183392 87.61657506 C307.97807914 87.61660143 307.27432435 87.6166278 306.54924366 87.61665496 C291.10169984 87.61719569 275.65415615 87.6168234 260.20661238 87.61561525 C254.67953459 87.61518961 249.1524568 87.61482449 243.62537901 87.61448581 C242.25034711 87.6144005 240.87531521 87.61431157 239.50028331 87.61421899 C217.57432789 87.61276917 195.64838582 87.61990319 173.7224336 87.63122295 C151.03216017 87.64286147 128.34190511 87.64344848 105.65163058 87.63137952 C92.56208184 87.62472948 79.47259593 87.62643118 66.38305216 87.63996804 C57.65047913 87.64817389 48.91795347 87.64556565 40.18538434 87.63399277 C35.20272963 87.6276978 30.22019809 87.62623399 25.2375502 87.6378561 C20.70939879 87.64832145 16.181476 87.64511208 11.65333715 87.63075158 C10.02093195 87.62801126 8.38850877 87.63035315 6.75612041 87.63825872 C4.545967 87.64823622 2.33661966 87.63981853 0.12649983 87.62674582 C-1.09910132 87.62676628 -2.32470247 87.62678674 -3.58744305 87.62680783 C-10.9272962 86.80127584 -15.14375832 82.62448582 -19.67122394 77.126849 C-21.95565602 73.70020087 -22.05104265 70.77667832 -22.06648761 66.77406579 C-22.07286746 65.65247567 -22.07924731 64.53088556 -22.0858205 63.37530786 C-22.08693332 62.16280862 -22.08804614 60.95030938 -22.08919269 59.70106775 C-22.09252109 58.45436807 -22.09584949 57.20766839 -22.09927875 55.92318994 C-22.10434618 53.2827881 -22.1071192 50.64248915 -22.10652667 48.00209314 C-22.10644538 45.29890012 -22.1133896 42.59587643 -22.12703449 39.89271814 C-22.14535834 35.99544861 -22.15026353 32.09837606 -22.15169269 28.20106775 C-22.1588782 26.9946412 -22.16606372 25.78821466 -22.17346698 24.54522973 C-22.17039035 23.41418313 -22.16731372 22.28313653 -22.16414386 21.11781579 C-22.16556888 20.1275892 -22.1669939 19.13736261 -22.1684621 18.11712915 C-21.80579734 13.91415282 -20.93496181 10.42447293 -18.15169269 7.204974 C-17.477513 6.64294275 -16.80333331 6.0809115 -16.10872394 5.501849 C-15.44227863 4.92950525 -14.77583331 4.3571615 -14.08919269 3.767474 C-9.48174473 0.54641128 -5.5696177 0.001633 0 0 Z M-11.66341144 10.71669275 C-15.19003021 15.30129715 -16.03621954 18.41371543 -16.08235675 24.09291345 C-16.09196429 25.05103433 -16.10157184 26.00915521 -16.11147052 26.99631006 C-16.1157204 28.02552072 -16.11997028 29.05473138 -16.12434894 30.11513025 C-16.13004901 31.18047494 -16.13574908 32.24581964 -16.14162189 33.34344751 C-16.15106337 35.5970029 -16.15760248 37.85057205 -16.16145831 40.10414392 C-16.17115803 43.54099542 -16.2021877 46.97724731 -16.23372394 50.41395837 C-16.24025497 52.60601212 -16.24550505 54.79807014 -16.24934894 56.99013025 C-16.26169574 58.01326822 -16.27404254 59.03640619 -16.28676349 60.09054834 C-16.26666586 66.57017832 -15.78591542 71.84477593 -11.45638019 76.9940365 C-6.56277989 80.75834442 -3.3441941 81.37617177 2.72393757 81.38065016 C3.88385682 81.38392236 5.04377607 81.38719455 6.23884439 81.3905659 C7.51651499 81.38908228 8.79418558 81.38759865 10.11057347 81.38607007 C11.48458448 81.38802284 12.85859493 81.39041162 14.2326045 81.39319804 C18.02899365 81.39961053 21.82536167 81.39975867 25.6217552 81.39892063 C29.7441457 81.39908989 33.86652856 81.40499321 37.98891526 81.4101615 C46.17434543 81.41949817 54.35977018 81.42341133 62.545205 81.42568046 C72.34569927 81.42863969 82.14618633 81.43733535 91.94667682 81.44609474 C115.63473818 81.46694979 139.32280079 81.47740992 163.01086919 81.48622435 C174.21145004 81.49042865 185.41203036 81.49565087 196.61261075 81.50090888 C234.93579822 81.51879843 273.25898584 81.53379624 311.58217686 81.54122907 C313.98855019 81.54170383 316.39492351 81.54217972 318.80129684 81.54265673 C319.99466535 81.54289311 321.18803386 81.54312948 322.41756505 81.54337302 C328.46397784 81.54457425 334.51039062 81.54578969 340.55680341 81.54701501 C342.35670954 81.54737524 342.35670954 81.54737524 344.19297742 81.54774274 C383.11977591 81.55564008 422.04654397 81.57908121 460.97332916 81.61157096 C502.1070307 81.64584017 543.24071442 81.66557742 584.37443048 81.66887331 C588.88659806 81.66929087 593.39876563 81.66977043 597.9109332 81.67029649 C599.02199564 81.67041968 600.13305809 81.67054287 601.2777891 81.6706698 C619.18498635 81.67300525 637.09214834 81.68868421 654.99933301 81.70913834 C672.98501067 81.72935685 690.97064581 81.73489248 708.95633273 81.7253677 C719.65081821 81.72013751 730.34516256 81.72610161 741.03962783 81.74790237 C748.17578432 81.76135432 755.31184304 81.76038339 762.44800038 81.74750042 C766.51893603 81.7405663 770.58960078 81.74006106 774.66051285 81.75706051 C778.36145177 81.77238973 782.06190037 81.76942364 785.76282424 81.75165023 C787.72617553 81.74699743 789.68954306 81.76204459 791.65283656 81.77781001 C798.06837319 81.72689332 802.26255501 81.69100772 807.07877606 77.251849 C810.7206437 73.11783708 812.19849452 70.81290367 812.23990887 65.34657556 C812.25432019 63.81423272 812.25432019 63.81423272 812.26902264 62.25093347 C812.27327252 61.14264184 812.2775224 60.03435022 812.28190106 58.892474 C812.28760113 57.7553396 812.29330121 56.6182052 812.29917401 55.44661218 C812.30863451 53.03567197 812.31516214 50.62471876 812.31901044 48.21376306 C812.32869959 44.53091478 812.3597071 40.84862831 812.39127606 37.1659115 C812.39780762 34.82476898 812.40305749 32.48362247 812.40690106 30.142474 C812.41924786 29.04227929 812.43159467 27.94208459 812.44431561 26.80855066 C812.42576389 20.41567535 812.11827841 15.50790622 807.54361981 10.60731775 C803.16225462 7.25686201 801.15502713 6.1270139 795.68316221 6.1241985 C794.52799377 6.12118253 793.37282533 6.11816656 792.18265179 6.1150592 C790.90001301 6.11682867 789.61737424 6.11859814 788.29586762 6.12042123 C786.92449032 6.11877282 785.55311349 6.11668711 784.18173745 6.11420113 C780.38332865 6.10860888 776.58494228 6.10931154 772.78653067 6.11097872 C768.66541452 6.11170699 764.54430485 6.10669354 760.42319143 6.1024037 C752.23599658 6.09480586 744.04880825 6.09262974 735.86161025 6.09207464 C726.06056888 6.09116276 716.25953357 6.08450044 706.4584948 6.07772782 C682.76596303 6.0616473 659.07343188 6.05576225 635.38089563 6.05097907 C624.17846313 6.04864521 612.97603115 6.0450428 601.77359906 6.0412837 C563.44621671 6.02844647 525.11883465 6.01772735 486.7914502 6.01428109 C484.38424993 6.01405946 481.97704966 6.01383768 479.56984938 6.01361574 C477.15674457 6.0133951 474.74363975 6.01317462 472.33053493 6.01295429 C467.48920971 6.01251173 462.64788449 6.01206462 457.80655926 6.01161462 C456.60618683 6.01150523 455.40581439 6.01139584 454.16906702 6.01128313 C415.23589822 6.00765148 376.30274802 5.99172823 337.36958633 5.96842426 C296.23257347 5.94384604 255.09557124 5.93010919 213.95855081 5.92891318 C209.44549161 5.92874171 204.93243241 5.92852628 200.41937321 5.92827874 C199.30808519 5.92822298 198.19679716 5.92816721 197.05183375 5.92810975 C179.14287186 5.92695755 161.23392901 5.91592122 143.32497356 5.90139169 C125.33455798 5.88704811 107.34416689 5.88377757 89.35374717 5.89183167 C78.65728446 5.89629805 67.96090064 5.89238716 57.26444825 5.87659316 C50.12562409 5.86687533 42.98685549 5.86799069 35.84803189 5.87802939 C31.77639317 5.88344461 27.70490642 5.88405742 23.63328002 5.87152067 C19.93054153 5.8602145 16.22807925 5.86266973 12.52535051 5.87618774 C10.56341917 5.87977942 8.60147784 5.86862092 6.63957825 5.85689646 C-0.360297 5.89884769 -6.09313824 6.03316708 -11.66341144 10.71669275 Z " fill="#231C54" transform="translate(270.9212239384651,278.7481510043144)"/>
<path d="M0 0 C1.1973024 -0.00571014 2.3946048 -0.01142029 3.62818909 -0.01730347 C4.96206655 -0.01854889 6.29594412 -0.01967397 7.62982178 -0.02069092 C9.02923209 -0.02531834 10.42864114 -0.03034289 11.82804871 -0.03573608 C15.63606245 -0.0488715 19.44405855 -0.05530753 23.25209141 -0.05974674 C25.63112438 -0.06267629 28.01015251 -0.06678093 30.38918304 -0.07125092 C37.83225586 -0.08493031 45.27531763 -0.09459418 52.71840215 -0.09845281 C61.31062841 -0.10293152 69.90269544 -0.12046879 78.49487329 -0.1494534 C85.13529545 -0.1710762 91.77567284 -0.18115744 98.41612983 -0.18249393 C102.38240408 -0.18354175 106.34852874 -0.18944426 110.31476593 -0.20731354 C114.04777908 -0.22380412 117.78053036 -0.22594505 121.51356697 -0.21717453 C123.53298471 -0.21603813 125.5523938 -0.22974882 127.57176208 -0.243927 C128.78034378 -0.23835785 129.98892548 -0.2327887 131.23413086 -0.22705078 C132.80373503 -0.22925062 132.80373503 -0.22925062 134.40504837 -0.2314949 C139.49078312 0.40626028 143.50967358 2.59992706 146.70062256 6.59942627 C150.30259027 11.76200675 150.20512334 16.67188035 150.09759521 22.79669189 C150.09909073 24.44924988 150.09909073 24.44924988 150.10061646 26.13519287 C150.09595406 28.45488737 150.07660947 30.77459378 150.043396 33.09405518 C149.99617249 36.62997605 150.00229047 40.16287892 150.01556396 43.69903564 C150.00440948 45.96077224 149.99018912 48.22249622 149.97259521 50.48419189 C149.97441803 51.53336792 149.97624084 52.58254395 149.9781189 53.66351318 C149.84180428 60.77549222 148.65843436 66.18326489 144.04916382 71.73162842 C140.22202685 74.94456103 136.24152754 75.39223601 131.38130188 75.40786743 C130.17987549 75.4163974 128.9784491 75.42492737 127.74061584 75.43371582 C126.43086288 75.43280945 125.12110992 75.43190308 123.77166748 75.43096924 C122.37181236 75.43695667 120.97196054 75.44376271 119.57211304 75.45132446 C115.77665504 75.4689678 111.98128725 75.47367907 108.18579221 75.47495604 C105.81326885 75.4763789 103.44076834 75.480651 101.06825066 75.48595047 C92.78789695 75.50444374 84.50760757 75.51262178 76.22723389 75.51104736 C68.51375459 75.50984546 60.80055488 75.53095895 53.08714634 75.56253469 C46.45939239 75.58869754 39.83172978 75.59941469 33.2039246 75.59813654 C29.24771757 75.597627 25.29175921 75.60330597 21.33560371 75.62449265 C17.61478571 75.64387595 13.8944536 75.64399933 10.17361832 75.62945938 C8.16138096 75.62637611 6.14914356 75.6430462 4.13697815 75.66033936 C-6.8675653 75.5836799 -6.8675653 75.5836799 -11.62896729 71.14044189 C-15.30320217 66.96968878 -16.74691498 64.65635087 -16.80596924 59.14337158 C-16.81880447 58.10178894 -16.83163971 57.0602063 -16.84486389 55.98706055 C-16.85225082 54.85689514 -16.85963776 53.72672974 -16.86724854 52.56231689 C-16.87532028 51.40298645 -16.88339203 50.24365601 -16.89170837 49.04919434 C-16.90555863 46.59118144 -16.91627655 44.13314923 -16.9241333 41.67510986 C-16.94133332 37.91969203 -16.98521119 34.16515721 -17.02935791 30.40997314 C-17.0394857 28.02326088 -17.04800153 25.63654111 -17.05474854 23.24981689 C-17.07225662 22.12774841 -17.08976471 21.00567993 -17.10780334 19.84960938 C-17.09051273 13.61915375 -16.84829258 9.85374873 -12.62896729 5.14044189 C-8.18261831 1.22342018 -5.87660218 0.01672983 0 0 Z " fill="#158CDF" transform="translate(1110.6289672851563,284.85955810546875)"/>
<path d="M0 0 C0.72353306 -0.00779995 1.44706613 -0.01559991 2.19252443 -0.02363622 C4.61190305 -0.04354696 7.02970699 -0.02779689 9.44909668 -0.01205444 C11.18555112 -0.01883103 12.92199837 -0.0277344 14.65843201 -0.03860474 C19.37131048 -0.06139988 24.08364172 -0.0525609 28.79652977 -0.03670931 C33.72830049 -0.02405143 38.66002432 -0.03579011 43.59179688 -0.04364014 C51.87390558 -0.05273702 60.15579135 -0.04074775 68.43786621 -0.01693726 C78.0134564 0.01027409 87.5885143 0.00145995 97.16409159 -0.02606928 C105.38505564 -0.04875822 113.60585944 -0.05196149 121.82684469 -0.03887594 C126.73707396 -0.03108025 131.64705303 -0.03004309 136.55726624 -0.04655838 C141.17364484 -0.06100075 145.78933711 -0.05098586 150.40564156 -0.0220871 C152.09994428 -0.01547501 153.79430476 -0.01737611 155.48858452 -0.02840042 C157.80168197 -0.04206376 160.11257991 -0.02493453 162.42553711 0 C164.36677082 0.00282769 164.36677082 0.00282769 166.34722137 0.00571251 C170.57608299 0.79631912 172.05677215 2.32443665 174.71276855 5.63491821 C175.34768677 7.83499146 175.34768677 7.83499146 175.35974121 10.07046509 C175.37550201 10.91484131 175.39126282 11.75921753 175.40750122 12.62918091 C175.39738007 13.52826172 175.38725891 14.42734253 175.37683105 15.35366821 C175.38161469 16.28916504 175.38639832 17.22466187 175.3913269 18.18850708 C175.39472216 20.16203497 175.38554594 22.13561939 175.36462402 24.10903931 C175.33785255 27.12545477 175.36438392 30.13814938 175.3963623 33.15444946 C175.39305814 35.07503057 175.38665177 36.99560937 175.37683105 38.91616821 C175.38695221 39.81524902 175.39707336 40.71432983 175.40750122 41.64065552 C175.38386002 42.90721985 175.38386002 42.90721985 175.35974121 44.19937134 C175.35576324 44.93707764 175.35178528 45.67478394 175.34768677 46.43484497 C174.35335599 49.88032895 172.45189866 51.3782661 169.71276855 53.63491821 C166.34722137 54.26412392 166.34722137 54.26412392 162.42553711 54.26983643 C161.70200405 54.27763638 160.97847098 54.28543633 160.23301268 54.29347265 C157.81363405 54.31338339 155.39583012 54.29763331 152.97644043 54.28189087 C151.23998599 54.28866746 149.50353874 54.29757082 147.7671051 54.30844116 C143.05422663 54.33123631 138.34189539 54.32239733 133.62900734 54.30654573 C128.69723662 54.29388786 123.76551279 54.30562654 118.83374023 54.31347656 C110.55163153 54.32257345 102.26974576 54.31058417 93.9876709 54.28677368 C84.41208071 54.25956234 74.83702281 54.26837647 65.26144552 54.29590571 C57.04048147 54.31859465 48.81967767 54.32179791 40.59869242 54.30871236 C35.68846314 54.30091667 30.77848408 54.29987952 25.86827087 54.31639481 C21.25189227 54.33083717 16.6362 54.32082229 12.01989555 54.29192352 C10.32559283 54.28531143 8.63123235 54.28721254 6.93695259 54.29823685 C4.62385514 54.31190018 2.3129572 54.29477096 0 54.26983643 C-1.29415581 54.2679513 -2.58831161 54.26606617 -3.92168427 54.26412392 C-8.15054588 53.47351731 -9.63123504 51.94539978 -12.28723145 48.63491821 C-12.92214966 46.43484497 -12.92214966 46.43484497 -12.9342041 44.19937134 C-12.9499649 43.35499512 -12.96572571 42.5106189 -12.98196411 41.64065552 C-12.97184296 40.74157471 -12.9617218 39.8424939 -12.95129395 38.91616821 C-12.95846939 37.51292297 -12.95846939 37.51292297 -12.96578979 36.08132935 C-12.96918505 34.10780145 -12.96000883 32.13421703 -12.93908691 30.16079712 C-12.91231544 27.14438165 -12.93884681 24.13168704 -12.9708252 21.11538696 C-12.96752103 19.19480585 -12.96111466 17.27422706 -12.95129395 15.35366821 C-12.9614151 14.4545874 -12.97153625 13.55550659 -12.98196411 12.62918091 C-12.96620331 11.78480469 -12.9504425 10.94042847 -12.9342041 10.07046509 C-12.93022614 9.33275879 -12.92624817 8.59505249 -12.92214966 7.83499146 C-11.03285004 1.28832536 -6.15815048 0.00897025 0 0 Z " fill="#43288A" transform="translate(676.2872314453125,386.3650817871094)"/>
<path d="M0 0 C1.30943069 -0.0087616 2.61886139 -0.01752319 3.9679718 -0.02655029 C7.55284398 -0.04931389 11.13699544 -0.04052021 14.72187996 -0.02465487 C18.47651207 -0.01198028 22.2310832 -0.02374028 25.98571777 -0.03158569 C32.29055847 -0.04067779 38.59510615 -0.02870616 44.89990234 -0.00488281 C52.18522355 0.02232797 59.46984511 0.01351347 66.75514936 -0.01401484 C73.01436071 -0.03671772 79.27336165 -0.03990034 85.53260088 -0.02682149 C89.26913958 -0.01903332 93.00534959 -0.01796752 96.74186707 -0.03450394 C100.90775874 -0.05165336 105.07244769 -0.02787422 109.23828125 0 C110.47479935 -0.01012115 111.71131744 -0.02024231 112.98530579 -0.03067017 C121.2904035 0.07244614 121.2904035 0.07244614 125.38375854 2.91018677 C127.10722939 5.62818803 127.74905264 6.91865633 127.76611328 10.08251953 C127.78187408 10.92689575 127.79763489 11.77127197 127.81387329 12.64123535 C127.80375214 13.54031616 127.79363098 14.43939697 127.78320312 15.36572266 C127.78798676 16.30121948 127.79277039 17.23671631 127.79769897 18.20056152 C127.80109423 20.17408942 127.79191801 22.14767384 127.77099609 24.12109375 C127.74422462 27.13750921 127.77075599 30.15020383 127.80273438 33.16650391 C127.79943021 35.08708502 127.79302384 37.00766381 127.78320312 38.92822266 C127.79332428 39.82730347 127.80344543 40.72638428 127.81387329 41.65270996 C127.79023209 42.91927429 127.79023209 42.91927429 127.76611328 44.21142578 C127.76213531 44.94913208 127.75815735 45.68683838 127.75405884 46.44689941 C126.67499337 50.18599999 125.34116058 51.41328981 122.11914062 53.64697266 C117.83092075 54.40228145 113.58296057 54.32950741 109.23828125 54.29394531 C107.92885056 54.30270691 106.61941986 54.31146851 105.27030945 54.32049561 C101.68543727 54.34325921 98.10128581 54.33446552 94.51640129 54.31860018 C90.76176918 54.3059256 87.00719805 54.3176856 83.25256348 54.32553101 C76.94772278 54.3346231 70.6431751 54.32265148 64.33837891 54.29882812 C57.0530577 54.27161735 49.76843614 54.28043185 42.48313189 54.30796015 C36.22392054 54.33066303 29.9649196 54.33384565 23.70568037 54.32076681 C19.96914167 54.31297863 16.23293166 54.31191283 12.49641418 54.32844925 C8.33052251 54.34559867 4.16583356 54.32181953 0 54.29394531 C-1.2365181 54.30406647 -2.47303619 54.31418762 -3.74702454 54.32461548 C-12.05212225 54.22149917 -12.05212225 54.22149917 -16.14547729 51.38375854 C-17.86894814 48.66575728 -18.51077139 47.37528898 -18.52783203 44.21142578 C-18.54359283 43.36704956 -18.55935364 42.52267334 -18.57559204 41.65270996 C-18.56547089 40.75362915 -18.55534973 39.85454834 -18.54492188 38.92822266 C-18.55209732 37.52497742 -18.55209732 37.52497742 -18.55941772 36.09338379 C-18.56281298 34.11985589 -18.55363676 32.14627147 -18.53271484 30.17285156 C-18.50594337 27.1564361 -18.53247474 24.14374149 -18.56445312 21.12744141 C-18.56114896 19.2068603 -18.55474259 17.2862815 -18.54492188 15.36572266 C-18.55504303 14.46664185 -18.56516418 13.56756104 -18.57559204 12.64123535 C-18.55983124 11.79685913 -18.54407043 10.95248291 -18.52783203 10.08251953 C-18.52385406 9.34481323 -18.5198761 8.60710693 -18.51577759 7.8470459 C-15.90984021 -1.18286218 -7.71778216 -0.06317163 0 0 Z " fill="#3F2885" transform="translate(702.880859375,183.35302734375)"/>
<path d="M0 0 C3.63 0 7.26 0 11 0 C13.63990189 7.41233714 15.46773426 14.88937235 17.1875 22.5625 C17.46013672 23.76197266 17.73277344 24.96144531 18.01367188 26.19726562 C18.67981284 29.1306232 19.34181832 32.06484821 20 35 C21.9376555 31.5690326 22.79617181 28.16162312 23.69140625 24.3359375 C23.841577 23.70265533 23.99174774 23.06937317 24.14646912 22.41690063 C24.62316679 20.40400469 25.09326619 18.38964778 25.5625 16.375 C26.18566892 13.71538714 26.81285013 11.05678951 27.44140625 8.3984375 C27.71670166 7.21942871 27.99199707 6.04041992 28.27563477 4.82568359 C29 2 29 2 30 0 C34.95 0 39.9 0 45 0 C48.25720147 11.94307207 51.17874641 23.94697771 54 36 C56.63763146 28.60831424 58.43177699 21.15779253 60.125 13.5 C60.64515017 11.15551825 61.16841089 8.81172366 61.6953125 6.46875 C62.0358667 4.92864258 62.0358667 4.92864258 62.38330078 3.35742188 C63 1 63 1 64 0 C67.66655195 -0.14300125 71.33144219 -0.04216733 75 0 C72.21515842 12.9571943 69.07831038 25.79753789 65.75 38.625 C65.28618293 40.42180393 64.82264003 42.21867866 64.359375 44.015625 C63.24272488 48.34456817 62.12242982 52.67255199 61 57 C56.71 57 52.42 57 48 57 C45.18862362 49.13504522 43.26932313 41.12680608 41.375 33 C40.76194624 30.37398105 40.14405709 27.74925784 39.5234375 25.125 C39.25450684 23.97257812 38.98557617 22.82015625 38.70849609 21.6328125 C38.26006913 19.09371306 38.26006913 19.09371306 37 18 C36.7326001 19.11036621 36.4652002 20.22073242 36.18969727 21.36474609 C35.19882051 25.47650539 34.2047561 29.58748842 33.2097168 33.69824219 C32.77915574 35.47895567 32.34946441 37.25987968 31.9206543 39.04101562 C31.30484823 41.59821261 30.68593861 44.15464109 30.06640625 46.7109375 C29.87470352 47.50994476 29.68300079 48.30895203 29.48548889 49.13217163 C28.11387171 54.77225659 28.11387171 54.77225659 27 57 C22.71 57 18.42 57 14 57 C12.17209269 49.86407765 10.34620191 42.72764672 8.52388 35.59029579 C7.67766892 32.27634273 6.83056773 28.96262247 5.98144531 25.64941406 C5.00582725 21.84246868 4.03405715 18.03454637 3.0625 14.2265625 C2.75626709 13.03382721 2.45003418 11.84109192 2.13452148 10.61221313 C1.85423096 9.51122284 1.57394043 8.41023254 1.28515625 7.27587891 C0.91209351 5.8169371 0.91209351 5.8169371 0.53149414 4.32852173 C0 2 0 2 0 0 Z " fill="#67BAF4" transform="translate(564,45)"/>
<path d="M0 0 C5.48138083 2.84610159 8.91471779 6.34105858 11.25 12.0625 C13.17139398 19.99041391 13.03821892 28.79234232 9 36 C6.39192703 40.01517763 3.77748439 42.86250372 -1 44 C-7.53005456 44.72556162 -8.71298005 43.59258283 -15 40 C-15.33 46.27 -15.66 52.54 -16 59 C-19.63 59 -23.26 59 -27 59 C-27 39.86 -27 20.72 -27 1 C-23.37 1 -19.74 1 -16 1 C-15.67 2.32 -15.34 3.64 -15 5 C-14.21625 4.360625 -13.4325 3.72125 -12.625 3.0625 C-8.51015201 -0.17059485 -5.1625742 -0.69348012 0 0 Z " fill="#97A5F8" transform="translate(1027,59)"/>
<path d="M0 0 C3.63 0 7.26 0 11 0 C11.33 5.94 11.66 11.88 12 18 C13.32 17.01 14.64 16.02 16 15 C20.66252858 13.44582381 24.48753327 13.45551198 29.125 15.125 C34.59319117 18.69121163 37.29222539 22.79129052 39 29 C39.71508305 36.40157389 39.82606707 44.39737731 36 51 C32.46713601 54.86815895 29.07484195 57.84039677 23.75 58.25 C18.8131626 57.92087751 15.50139672 56.50139672 12 53 C11.67 54.32 11.34 55.64 11 57 C7.37 57 3.74 57 0 57 C0 38.19 0 19.38 0 0 Z " fill="#56C2F3" transform="translate(434,45)"/>
<path d="M0 0 C2.875 2.4375 2.875 2.4375 5 5 C5.5775 5.66 6.155 6.32 6.75 7 C8 9 8 9 9 14 C5.37 14.66 1.74 15.32 -2 16 C-2.37125 15.236875 -2.7425 14.47375 -3.125 13.6875 C-5.48230144 10.30870127 -7.11628684 9.36649167 -11 8 C-16.93461754 7.21087963 -21.76718494 7.92187349 -27 11 C-32.32522164 17.72659575 -32.6031039 23.68578195 -32 32 C-30.89164541 36.59641169 -28.66643471 40.00018979 -25 43 C-19.88580834 45.96815299 -14.84164144 45.68373292 -9.19140625 44.32421875 C-6.77306926 43.60043278 -4.38186398 42.8353928 -2 42 C-2 39.36 -2 36.72 -2 34 C-6.62 34 -11.24 34 -16 34 C-16 30.7 -16 27.4 -16 24 C-7.75 24 0.5 24 9 24 C9 31.92 9 39.84 9 48 C-2.23461019 54.2414501 -10.66973792 57.94910605 -23.484375 55.53125 C-30.02541388 53.63660425 -35.82693427 50.36474694 -39.57421875 44.5625 C-44.10547789 35.83755404 -45.59037091 26.67264318 -43.28125 16.984375 C-40.28577309 8.14288671 -36.45485323 3.40996473 -28.18359375 -1.01953125 C-19.70553187 -4.82631753 -8.20502455 -4.32566148 0 0 Z " fill="#47C8F1" transform="translate(344,47)"/>
<path d="M0 0 C13.86 0 27.72 0 42 0 C42 3.3 42 6.6 42 10 C31.77 10 21.54 10 11 10 C11 13.96 11 17.92 11 22 C20.57 22 30.14 22 40 22 C40 25.3 40 28.6 40 32 C30.43 32 20.86 32 11 32 C11 36.95 11 41.9 11 47 C21.56 47 32.12 47 43 47 C43 50.3 43 53.6 43 57 C28.81 57 14.62 57 0 57 C0 38.19 0 19.38 0 0 Z " fill="#8DAAF7" transform="translate(903,45)"/>
<path d="M0 0 C5.11859047 2.93230993 8.55143684 6.98589355 11.125 12.25 C12.5371123 19.45177272 12.75861723 27.02636714 8.75 33.4375 C3.58510412 39.10547015 -1.22473225 42.39520107 -8.9375 42.875 C-14.83287407 42.72541588 -19.51366841 40.93936219 -24.25 37.4375 C-29.36349521 31.51475898 -30.56628765 25.68853517 -30.46484375 18.03515625 C-30.02477083 12.71427461 -28.3712928 8.84712523 -25.0625 4.6875 C-17.46877444 -1.38748045 -9.3572671 -4.12505477 0 0 Z " fill="#9EA2F9" transform="translate(1097.25,60.5625)"/>
<path d="M0 0 C5.11859047 2.93230993 8.55143684 6.98589355 11.125 12.25 C12.5371123 19.45177272 12.75861723 27.02636714 8.75 33.4375 C3.58510412 39.10547015 -1.22473225 42.39520107 -8.9375 42.875 C-14.83287407 42.72541588 -19.51366841 40.93936219 -24.25 37.4375 C-29.36349521 31.51475898 -30.56628765 25.68853517 -30.46484375 18.03515625 C-30.02477083 12.71427461 -28.3712928 8.84712523 -25.0625 4.6875 C-17.46877444 -1.38748045 -9.3572671 -4.12505477 0 0 Z " fill="#50C4F2" transform="translate(413.25,60.5625)"/>
<path d="M0 0 C3.40442854 2.41893607 5.0382819 3.67734571 6.375 7.6875 C6.50241112 9.75421228 6.57683212 11.82436842 6.62109375 13.89453125 C6.65396484 15.12107422 6.68683594 16.34761719 6.72070312 17.61132812 C6.78162244 20.19197421 6.83894755 22.77270778 6.89257812 25.35351562 C6.92673828 26.58392578 6.96089844 27.81433594 6.99609375 29.08203125 C7.0211499 30.20456299 7.04620605 31.32709473 7.07202148 32.48364258 C7.38689013 35.81323257 8.19755211 38.56736615 9.375 41.6875 C5.745 41.6875 2.115 41.6875 -1.625 41.6875 C-2.285 40.3675 -2.945 39.0475 -3.625 37.6875 C-4.388125 38.326875 -5.15125 38.96625 -5.9375 39.625 C-10.22702622 42.91696198 -14.35312292 43.27555674 -19.625 42.6875 C-22.83324247 41.19032018 -25.35432114 39.41231464 -27.625 36.6875 C-29.33794537 31.54866388 -29.31266758 27.39029592 -27.3125 22.4375 C-21.76210652 16.7580276 -13.1815366 15.39841395 -5.625 13.6875 C-5.625 11.7075 -5.625 9.7275 -5.625 7.6875 C-7.06083001 7.57913547 -8.4990202 7.50173833 -9.9375 7.4375 C-11.13826172 7.36789063 -11.13826172 7.36789063 -12.36328125 7.296875 C-14.81253298 7.44861488 -14.81253298 7.44861488 -16.09375 9.71875 C-16.5990625 10.3684375 -17.104375 11.018125 -17.625 11.6875 C-20.10546875 11.859375 -20.10546875 11.859375 -22.8125 11.4375 C-23.71355469 11.30859375 -24.61460937 11.1796875 -25.54296875 11.046875 C-26.23003906 10.92828125 -26.91710937 10.8096875 -27.625 10.6875 C-26.30271571 5.00167757 -24.22244698 2.9713907 -19.625 -0.3125 C-13.43768931 -2.3749369 -6.09874594 -2.20816663 0 0 Z " fill="#74B5F5" transform="translate(713.625,60.3125)"/>
<path d="M0 0 C3.40442854 2.41893607 5.0382819 3.67734571 6.375 7.6875 C6.50241112 9.75421228 6.57683212 11.82436842 6.62109375 13.89453125 C6.65396484 15.12107422 6.68683594 16.34761719 6.72070312 17.61132812 C6.78162244 20.19197421 6.83894755 22.77270778 6.89257812 25.35351562 C6.92673828 26.58392578 6.96089844 27.81433594 6.99609375 29.08203125 C7.0211499 30.20456299 7.04620605 31.32709473 7.07202148 32.48364258 C7.38689013 35.81323257 8.19755211 38.56736615 9.375 41.6875 C5.745 41.6875 2.115 41.6875 -1.625 41.6875 C-2.285 40.3675 -2.945 39.0475 -3.625 37.6875 C-4.388125 38.326875 -5.15125 38.96625 -5.9375 39.625 C-10.22702622 42.91696198 -14.35312292 43.27555674 -19.625 42.6875 C-22.83324247 41.19032018 -25.35432114 39.41231464 -27.625 36.6875 C-29.33794537 31.54866388 -29.31266758 27.39029592 -27.3125 22.4375 C-21.76210652 16.7580276 -13.1815366 15.39841395 -5.625 13.6875 C-5.625 11.7075 -5.625 9.7275 -5.625 7.6875 C-7.06083001 7.57913547 -8.4990202 7.50173833 -9.9375 7.4375 C-11.13826172 7.36789063 -11.13826172 7.36789063 -12.36328125 7.296875 C-14.81253298 7.44861488 -14.81253298 7.44861488 -16.09375 9.71875 C-16.5990625 10.3684375 -17.104375 11.018125 -17.625 11.6875 C-20.10546875 11.859375 -20.10546875 11.859375 -22.8125 11.4375 C-23.71355469 11.30859375 -24.61460937 11.1796875 -25.54296875 11.046875 C-26.23003906 10.92828125 -26.91710937 10.8096875 -27.625 10.6875 C-26.30271571 5.00167757 -24.22244698 2.9713907 -19.625 -0.3125 C-13.43768931 -2.3749369 -6.09874594 -2.20816663 0 0 Z " fill="#5BBFF3" transform="translate(507.625,60.3125)"/>
<path d="M0 0 C3.63 0 7.26 0 11 0 C11.33 5.94 11.66 11.88 12 18 C13.32 17.01 14.64 16.02 16 15 C21.28223764 13.23925412 25.37685861 13.20374196 30.3125 15.625 C34.32547561 19.17135054 35.84975652 22.36315382 36.34057617 27.71044922 C36.34010776 29.07528749 36.32355011 30.4401918 36.29296875 31.8046875 C36.28872391 32.5286673 36.28447906 33.25264709 36.28010559 33.99856567 C36.26342972 36.29110287 36.22580081 38.58273246 36.1875 40.875 C36.17243871 42.43748722 36.15875284 43.99998835 36.14648438 45.5625 C36.11356293 49.37534505 36.06186002 53.18751911 36 57 C32.37 57 28.74 57 25 57 C24.98018066 56.07662842 24.96036133 55.15325684 24.93994141 54.2019043 C24.86182261 50.77438826 24.77513003 47.34731202 24.68261719 43.92016602 C24.64434653 42.43717788 24.60949022 40.95409752 24.578125 39.47094727 C24.532432 37.33836928 24.47444662 35.20642509 24.4140625 33.07421875 C24.36693115 31.14968872 24.36693115 31.14968872 24.31884766 29.1862793 C24.23620772 25.84612541 24.23620772 25.84612541 22 23 C18.79800452 22.59123462 16.85551106 22.38049199 14.1875 24.3125 C11.71725888 27.82284264 11.81521263 31.26257276 11.68359375 35.41796875 C11.64169922 36.67158203 11.59980469 37.92519531 11.55664062 39.21679688 C11.51732422 40.52712891 11.47800781 41.83746094 11.4375 43.1875 C11.39429008 44.52279978 11.350675 45.85808652 11.30664062 47.19335938 C11.20043498 50.46213297 11.09839003 53.73098333 11 57 C7.37 57 3.74 57 0 57 C0 38.19 0 19.38 0 0 Z " fill="#7CB1F6" transform="translate(758,45)"/>
<path d="M0 0 C5.91219743 4.16541183 9.47747506 8.68410782 10.75 15.9375 C10.75 18.5775 10.75 21.2175 10.75 23.9375 C1.84 23.9375 -7.07 23.9375 -16.25 23.9375 C-14.22384121 31.71027038 -14.22384121 31.71027038 -10.25 33.9375 C-7.91800612 34.01655064 -5.58167378 34.02548769 -3.25 33.9375 C-2.59 32.2875 -1.93 30.6375 -1.25 28.9375 C2.38 29.2675 6.01 29.5975 9.75 29.9375 C7.52076992 36.03855074 5.31604648 38.89975915 -0.4375 42.1875 C-7.04830534 43.95038142 -13.47250488 43.75571586 -19.4921875 40.34375 C-23.67839863 36.9947811 -26.28960223 32.17603332 -27.25 26.9375 C-27.76035457 20.06734235 -28.14318825 12.90534777 -24.25 6.9375 C-17.28772538 -0.51793574 -10.00315227 -3.27026132 0 0 Z " fill="#A59EF9" transform="translate(1173.25,60.0625)"/>
<path d="M0 0 C5.91219743 4.16541183 9.47747506 8.68410782 10.75 15.9375 C10.75 18.5775 10.75 21.2175 10.75 23.9375 C1.84 23.9375 -7.07 23.9375 -16.25 23.9375 C-14.22384121 31.71027038 -14.22384121 31.71027038 -10.25 33.9375 C-7.91800612 34.01655064 -5.58167378 34.02548769 -3.25 33.9375 C-2.59 32.2875 -1.93 30.6375 -1.25 28.9375 C2.38 29.2675 6.01 29.5975 9.75 29.9375 C7.52076992 36.03855074 5.31604648 38.89975915 -0.4375 42.1875 C-7.04830534 43.95038142 -13.47250488 43.75571586 -19.4921875 40.34375 C-23.67839863 36.9947811 -26.28960223 32.17603332 -27.25 26.9375 C-27.76035457 20.06734235 -28.14318825 12.90534777 -24.25 6.9375 C-17.28772538 -0.51793574 -10.00315227 -3.27026132 0 0 Z " fill="#81AFF6" transform="translate(830.25,60.0625)"/>
<path d="M0 0 C5.91219743 4.16541183 9.47747506 8.68410782 10.75 15.9375 C10.75 18.5775 10.75 21.2175 10.75 23.9375 C1.84 23.9375 -7.07 23.9375 -16.25 23.9375 C-14.22384121 31.71027038 -14.22384121 31.71027038 -10.25 33.9375 C-7.91800612 34.01655064 -5.58167378 34.02548769 -3.25 33.9375 C-2.59 32.2875 -1.93 30.6375 -1.25 28.9375 C2.38 29.2675 6.01 29.5975 9.75 29.9375 C7.52076992 36.03855074 5.31604648 38.89975915 -0.4375 42.1875 C-7.04830534 43.95038142 -13.47250488 43.75571586 -19.4921875 40.34375 C-23.67839863 36.9947811 -26.28960223 32.17603332 -27.25 26.9375 C-27.76035457 20.06734235 -28.14318825 12.90534777 -24.25 6.9375 C-17.28772538 -0.51793574 -10.00315227 -3.27026132 0 0 Z " fill="#6FB7F5" transform="translate(668.25,60.0625)"/>
<path d="M0 0 C4.47274603 -0.59725095 8.55699755 -0.89597914 13 0 C15.9214511 2.95777465 17.49481185 6.15111706 19 10 C21.56283232 7.58915569 22.99088284 6.0206127 24.4375 2.75 C27 0 27 0 30.14453125 -0.3828125 C33.44916335 -0.37565187 36.70593895 -0.25705101 40 0 C37.02211845 5.5835279 33.459679 10.40420837 29.51171875 15.3515625 C27.75170413 17.84197044 27.75170413 17.84197044 28.23535156 20.39111328 C29.04632364 23.15805058 30.09023283 25.02301623 31.72265625 27.390625 C32.52993164 28.57785156 32.52993164 28.57785156 33.35351562 29.7890625 C33.91748047 30.60117188 34.48144531 31.41328125 35.0625 32.25 C36.18019531 33.87896797 37.29618014 35.50911138 38.41015625 37.140625 C38.90652588 37.85766602 39.40289551 38.57470703 39.91430664 39.31347656 C41 41 41 41 41 42 C36.46654058 42.74636222 32.49908595 43.04653767 28 42 C24.46828682 38.43176985 22.2093485 34.48544469 20 30 C19.57332031 30.86625 19.14664063 31.7325 18.70703125 32.625 C16.7054619 36.1906823 14.88255068 39.08764451 12 42 C7.50091405 43.04653767 3.53345942 42.74636222 -1 42 C2.26380776 35.64498969 6.08110662 30.07780566 10.5234375 24.48046875 C12.22647221 22.20243638 12.22647221 22.20243638 11.7487793 20.09960938 C10.92111198 17.77879459 9.86048328 15.97682906 8.49609375 13.92578125 C7.75649414 12.80139648 7.75649414 12.80139648 7.00195312 11.65429688 C6.48568359 10.88150391 5.96941406 10.10871094 5.4375 9.3125 C4.41345838 7.76818941 3.39121907 6.22268163 2.37109375 4.67578125 C1.91661865 3.99427002 1.46214355 3.31275879 0.99389648 2.6105957 C0 1 0 1 0 0 Z " fill="#92A7F8" transform="translate(952,60)"/>
<path d="M0 0 C0 4.62 0 9.24 0 14 C2.64 14 5.28 14 8 14 C8 16.64 8 19.28 8 22 C5.36 22 2.72 22 0 22 C0.13813025 26.14612814 0.28678859 30.29181162 0.4375 34.4375 C0.47681641 35.62150391 0.51613281 36.80550781 0.55664062 38.02539062 C0.59853516 39.15009766 0.64042969 40.27480469 0.68359375 41.43359375 C0.72025146 42.47572021 0.75690918 43.51784668 0.79467773 44.59155273 C0.73515341 46.9499826 0.73515341 46.9499826 2 48 C4.33297433 48.04092937 6.66705225 48.04241723 9 48 C9 50.64 9 53.28 9 56 C4.65409627 57.44863458 0.54177058 57.52188047 -4 57 C-9.61971831 54.14084507 -9.61971831 54.14084507 -11 50 C-11.0833804 47.86205475 -11.10733747 45.72157991 -11.09765625 43.58203125 C-11.09443359 42.32841797 -11.09121094 41.07480469 -11.08789062 39.78320312 C-11.07951172 38.47287109 -11.07113281 37.16253906 -11.0625 35.8125 C-11.05748317 34.47721519 -11.05292059 33.14192859 -11.04882812 31.80664062 C-11.03702695 28.53771527 -11.02056297 25.26888009 -11 22 C-12.65 22 -14.3 22 -16 22 C-16 19.36 -16 16.72 -16 14 C-14.35 14 -12.7 14 -11 14 C-11.20625 12.80375 -11.4125 11.6075 -11.625 10.375 C-11.66015625 8.1796875 -11.66015625 8.1796875 -11 6 C-8.26715788 3.67148211 -3.7712481 0 0 0 Z " fill="#78B3F5" transform="translate(743,46)"/>
<path d="M0 0 C3.63 0 7.26 0 11 0 C11 18.81 11 37.62 11 57 C7.37 57 3.74 57 0 57 C0 38.19 0 19.38 0 0 Z " fill="#9AA4F8" transform="translate(1048,45)"/>
<path d="M0 0 C3.63 0 7.26 0 11 0 C11 18.81 11 37.62 11 57 C7.37 57 3.74 57 0 57 C0 38.19 0 19.38 0 0 Z " fill="#5FBDF3" transform="translate(526,45)"/>
<path d="M0 0 C3.63 0 7.26 0 11 0 C11 18.81 11 37.62 11 57 C7.37 57 3.74 57 0 57 C0 38.19 0 19.38 0 0 Z " fill="#4CC5F2" transform="translate(364,45)"/>
<path d="M0 0 C0.99 0.66 1.98 1.32 3 2 C2.34 5.63 1.68 9.26 1 13 C-0.258125 12.773125 -1.51625 12.54625 -2.8125 12.3125 C-6.04879665 11.84735856 -6.04879665 11.84735856 -8.9375 13.1875 C-11.06068695 16.80940715 -11.16264234 20.51096569 -11.31640625 24.640625 C-11.37924805 26.24550781 -11.37924805 26.24550781 -11.44335938 27.8828125 C-11.48267578 28.99398437 -11.52199219 30.10515625 -11.5625 31.25 C-11.60568359 32.37664062 -11.64886719 33.50328125 -11.69335938 34.6640625 C-11.79931933 37.44256799 -11.9001526 40.22126814 -12 43 C-15.63 43 -19.26 43 -23 43 C-23 29.14 -23 15.28 -23 1 C-19.37 1 -15.74 1 -12 1 C-11.67 1.99 -11.34 2.98 -11 4 C-10.29875 3.34 -9.5975 2.68 -8.875 2 C-5.52319265 -0.33169207 -3.99546788 -0.52114798 0 0 Z " fill="#A99CFA" transform="translate(1216,59)"/>
<path d="M0 0 C0.99 0.66 1.98 1.32 3 2 C2.34 5.63 1.68 9.26 1 13 C-0.258125 12.773125 -1.51625 12.54625 -2.8125 12.3125 C-6.04879665 11.84735856 -6.04879665 11.84735856 -8.9375 13.1875 C-11.06068695 16.80940715 -11.16264234 20.51096569 -11.31640625 24.640625 C-11.37924805 26.24550781 -11.37924805 26.24550781 -11.44335938 27.8828125 C-11.48267578 28.99398437 -11.52199219 30.10515625 -11.5625 31.25 C-11.60568359 32.37664062 -11.64886719 33.50328125 -11.69335938 34.6640625 C-11.79931933 37.44256799 -11.9001526 40.22126814 -12 43 C-15.63 43 -19.26 43 -23 43 C-23 29.14 -23 15.28 -23 1 C-19.37 1 -15.74 1 -12 1 C-11.67 1.99 -11.34 2.98 -11 4 C-10.29875 3.34 -9.5975 2.68 -8.875 2 C-5.52319265 -0.33169207 -3.99546788 -0.52114798 0 0 Z " fill="#A2A0F9" transform="translate(1141,59)"/>
<path d="M0 0 C0.99 0.66 1.98 1.32 3 2 C2.34 5.63 1.68 9.26 1 13 C-0.258125 12.773125 -1.51625 12.54625 -2.8125 12.3125 C-6.04879665 11.84735856 -6.04879665 11.84735856 -8.9375 13.1875 C-11.06068695 16.80940715 -11.16264234 20.51096569 -11.31640625 24.640625 C-11.37924805 26.24550781 -11.37924805 26.24550781 -11.44335938 27.8828125 C-11.48267578 28.99398437 -11.52199219 30.10515625 -11.5625 31.25 C-11.60568359 32.37664062 -11.64886719 33.50328125 -11.69335938 34.6640625 C-11.79931933 37.44256799 -11.9001526 40.22126814 -12 43 C-15.63 43 -19.26 43 -23 43 C-23 29.14 -23 15.28 -23 1 C-19.37 1 -15.74 1 -12 1 C-11.67 1.99 -11.34 2.98 -11 4 C-10.29875 3.34 -9.5975 2.68 -8.875 2 C-5.52319265 -0.33169207 -3.99546788 -0.52114798 0 0 Z " fill="#86ADF6" transform="translate(873,59)"/>
<path d="M0 0 C2.8562282 1.75268549 4.55346407 3.27703706 6.3125 6.125 C7.65468275 11.73776422 7.7290667 16.99506658 5.75 22.4375 C3.96072963 25.05750304 2.81740889 26.55104686 0 28 C-3.79474027 28.56517408 -5.46140324 28.33050256 -8.75 26.3125 C-12.49701755 22.46139863 -13.12345108 19.31648447 -13.3125 14.0625 C-13.19266759 8.69400804 -11.97903297 5.04727549 -8.1875 1.125 C-5.19222268 -0.41542833 -3.329938 -0.47570543 0 0 Z " fill="#4E1D80" transform="translate(1091,67)"/>
<path d="M0 0 C2.8562282 1.75268549 4.55346407 3.27703706 6.3125 6.125 C7.65468275 11.73776422 7.7290667 16.99506658 5.75 22.4375 C3.96072963 25.05750304 2.81740889 26.55104686 0 28 C-3.79474027 28.56517408 -5.46140324 28.33050256 -8.75 26.3125 C-12.49701755 22.46139863 -13.12345108 19.31648447 -13.3125 14.0625 C-13.19266759 8.69400804 -11.97903297 5.04727549 -8.1875 1.125 C-5.19222268 -0.41542833 -3.329938 -0.47570543 0 0 Z " fill="#371D69" transform="translate(407,67)"/>
<path d="M0 0 C3.5 0.875 3.5 0.875 5.375 2.75 C8.26311548 8.20532924 7.95377505 13.84854886 7.5 19.875 C5.97506657 24.0867209 5.22020689 25.39486208 1.5 27.875 C-4.6943734 27.65377238 -4.6943734 27.65377238 -7.375 25.0625 C-10.14872796 19.66914009 -9.9896401 13.81081244 -9.5 7.875 C-7.58184326 2.66857457 -5.94342971 -0.21226535 0 0 Z " fill="#3A1D6B" transform="translate(454.5,67.125)"/>
<path d="M0 0 C3.5 0.875 3.5 0.875 5.375 2.75 C8.26311548 8.20532924 7.95377505 13.84854886 7.5 19.875 C5.97506657 24.0867209 5.22020689 25.39486208 1.5 27.875 C-0.9375 28.25 -0.9375 28.25 -3.5 27.875 C-6.82865199 25.30718275 -8.17815603 22.8063463 -9.5 18.875 C-10.19471402 12.67670736 -10.15293467 7.15146119 -6.5 1.875 C-3.5 -0.125 -3.5 -0.125 0 0 Z " fill="#4C1D7E" transform="translate(1020.5,67.125)"/>
<path d="M0 0 C2.75329021 1.79562405 4.52627461 3.05254922 6 6 C6.39447548 10.18144011 6.45035186 12.30946048 4.125 15.875 C1.39955109 18.60044891 0.56499391 18.94669869 -3.3125 19.3125 C-7.57536111 18.95124058 -9.01992054 17.98007946 -12 15 C-13.55024464 11.89951072 -13.28992015 9.42105782 -13 6 C-9.30920537 0.34078157 -6.6962915 -0.56748233 0 0 Z " fill="#5373B3" transform="translate(700,404)"/>
<path d="M0 0 C2.4375 1.4375 2.4375 1.4375 4 4 C4.18172684 6.303282 4.12669492 8.47848188 3.9453125 10.78125 C4.00839349 13.34053571 4.71743487 14.81267963 6 17 C5.34 16.67 4.68 16.34 4 16 C1.17829997 15.05943332 -0.19249344 14.96406505 -3.0625 15.125 C-7 15 -7 15 -9.5 13.4375 C-11.58392818 10.05111671 -11.55802097 7.90614682 -11 4 C-8.11188513 -0.5054592 -5.11821063 -0.73117295 0 0 Z " fill="#1AA5DB" transform="translate(1139,314)"/>
<path d="M0 0 C0.66 0 1.32 0 2 0 C2 5.61 2 11.22 2 17 C-1.31642594 17 -3.84871861 16.91221303 -7 16 C-9.31282587 12.53076119 -9.42478586 11.07794425 -9 7 C-7.875 5.0625 -7.875 5.0625 -6 4 C-2.8125 4.3125 -2.8125 4.3125 0 5 C0 3.35 0 1.7 0 0 Z " fill="#ADF4FC" transform="translate(762,134)"/>
<path d="M0 0 C2.3125 1.625 2.3125 1.625 4 4 C4.33 5.98 4.66 7.96 5 10 C-0.28 10 -5.56 10 -11 10 C-10 4 -10 4 -8.3125 1.625 C-5.26828585 -0.51417751 -3.64902278 -0.60817046 0 0 Z " fill="#501D83" transform="translate(1168,67)"/>
<path d="M0 0 C2.3125 1.625 2.3125 1.625 4 4 C4.33 5.98 4.66 7.96 5 10 C-0.28 10 -5.56 10 -11 10 C-10 4 -10 4 -8.3125 1.625 C-5.26828585 -0.51417751 -3.64902278 -0.60817046 0 0 Z " fill="#451D77" transform="translate(825,67)"/>
<path d="M0 0 C2.3125 1.625 2.3125 1.625 4 4 C4.33 5.98 4.66 7.96 5 10 C-0.28 10 -5.56 10 -11 10 C-10 4 -10 4 -8.3125 1.625 C-5.26828585 -0.51417751 -3.64902278 -0.60817046 0 0 Z " fill="#401D72" transform="translate(663,67)"/>
<path d="M0 0 C0.60737527 7.1670282 0.60737527 7.1670282 -2.1875 11 C-5 13 -5 13 -7.625 13.5 C-10.45216081 12.90480825 -11.4167564 12.41652971 -13 10 C-13.4375 7.5 -13.4375 7.5 -13 5 C-10.02480275 1.6529031 -4.43942342 0 0 0 Z " fill="#421D74" transform="translate(709,82)"/>
<path d="M0 0 C0.60737527 7.1670282 0.60737527 7.1670282 -2.1875 11 C-5 13 -5 13 -7.625 13.5 C-10.45216081 12.90480825 -11.4167564 12.41652971 -13 10 C-13.4375 7.5 -13.4375 7.5 -13 5 C-10.02480275 1.6529031 -4.43942342 0 0 0 Z " fill="#3B1D6D" transform="translate(503,82)"/>
<path d="M0 0 C1.8125 1.0625 1.8125 1.0625 3 3 C3.6384 8.9584 3.6384 8.9584 1.8125 11.9375 C-0.66049093 13.38718434 -2.17884512 13.42317323 -5 13 C-6.8125 11.9375 -6.8125 11.9375 -8 10 C-8.6384 4.0416 -8.6384 4.0416 -6.8125 1.0625 C-4.33950907 -0.38718434 -2.82115488 -0.42317323 0 0 Z " fill="#ADF4FC" transform="translate(1009,138)"/>
<path d="M0 0 C1.8125 1.0625 1.8125 1.0625 3 3 C3.6384 8.9584 3.6384 8.9584 1.8125 11.9375 C-0.66049093 13.38718434 -2.17884512 13.42317323 -5 13 C-6.8125 11.9375 -6.8125 11.9375 -8 10 C-8.6384 4.0416 -8.6384 4.0416 -6.8125 1.0625 C-4.33950907 -0.38718434 -2.82115488 -0.42317323 0 0 Z " fill="#ADF4FC" transform="translate(975,138)"/>
<path d="M0 0 C1.8125 1.0625 1.8125 1.0625 3 3 C3.6384 8.9584 3.6384 8.9584 1.8125 11.9375 C-0.66049093 13.38718434 -2.17884512 13.42317323 -5 13 C-6.8125 11.9375 -6.8125 11.9375 -8 10 C-8.6384 4.0416 -8.6384 4.0416 -6.8125 1.0625 C-4.33950907 -0.38718434 -2.82115488 -0.42317323 0 0 Z " fill="#ADF4FC" transform="translate(925,138)"/>
<path d="M0 0 C1.8125 1.0625 1.8125 1.0625 3 3 C3.6384 8.9584 3.6384 8.9584 1.8125 11.9375 C-0.66049093 13.38718434 -2.17884512 13.42317323 -5 13 C-6.8125 11.9375 -6.8125 11.9375 -8 10 C-8.6384 4.0416 -8.6384 4.0416 -6.8125 1.0625 C-4.33950907 -0.38718434 -2.82115488 -0.42317323 0 0 Z " fill="#ADF4FC" transform="translate(845,138)"/>
<path d="M0 0 C1.8125 1.0625 1.8125 1.0625 3 3 C3.6384 8.9584 3.6384 8.9584 1.8125 11.9375 C-0.66049093 13.38718434 -2.17884512 13.42317323 -5 13 C-6.8125 11.9375 -6.8125 11.9375 -8 10 C-8.6384 4.0416 -8.6384 4.0416 -6.8125 1.0625 C-4.33950907 -0.38718434 -2.82115488 -0.42317323 0 0 Z " fill="#ADF4FC" transform="translate(792,138)"/>
<path d="M0 0 C1.8125 1.0625 1.8125 1.0625 3 3 C3.6384 8.9584 3.6384 8.9584 1.8125 11.9375 C-0.66049093 13.38718434 -2.17884512 13.42317323 -5 13 C-6.8125 11.9375 -6.8125 11.9375 -8 10 C-8.6384 4.0416 -8.6384 4.0416 -6.8125 1.0625 C-4.33950907 -0.38718434 -2.82115488 -0.42317323 0 0 Z " fill="#ADF4FC" transform="translate(734,138)"/>
<path d="M0 0 C1.8125 1.0625 1.8125 1.0625 3 3 C3.6384 8.9584 3.6384 8.9584 1.8125 11.9375 C-0.66049093 13.38718434 -2.17884512 13.42317323 -5 13 C-6.8125 11.9375 -6.8125 11.9375 -8 10 C-8.6384 4.0416 -8.6384 4.0416 -6.8125 1.0625 C-4.33950907 -0.38718434 -2.82115488 -0.42317323 0 0 Z " fill="#ADF4FC" transform="translate(478,138)"/>
<path d="M0 0 C6.34507042 -0.35915493 6.34507042 -0.35915493 8.9375 1.0625 C10.6140629 4.11976176 10.36528977 6.5906288 10 10 C8.9375 11.9375 8.9375 11.9375 7 13 C3.3125 13.1875 3.3125 13.1875 0 13 C0 8.71 0 4.42 0 0 Z " fill="#3B1D6D" transform="translate(427,136)"/>
<path d="M0 0 C1.32 0.33 2.64 0.66 4 1 C4.66 3.31 5.32 5.62 6 8 C6.28875 7.4225 6.5775 6.845 6.875 6.25 C8.4375 3.125 8.4375 3.125 10 0 C10.99 0 11.98 0 13 0 C13 4.62 13 9.24 13 14 C12.34 14 11.68 14 11 14 C10.67 12.02 10.34 10.04 10 8 C9.34 9.98 8.68 11.96 8 14 C7.01 14 6.02 14 5 14 C4.34 12.02 3.68 10.04 3 8 C2.67 9.98 2.34 11.96 2 14 C1.34 14 0.68 14 0 14 C0 9.38 0 4.76 0 0 Z " fill="#71EAFA" transform="translate(729,406)"/>
<path d="M0 0 C4.29 0 8.58 0 13 0 C13 0.66 13 1.32 13 2 C9.37 2 5.74 2 2 2 C2 3.65 2 5.3 2 7 C5.3 7 8.6 7 12 7 C12 7.66 12 8.32 12 9 C8.7 9 5.4 9 2 9 C2 10.98 2 12.96 2 15 C5.63 15 9.26 15 13 15 C13 15.66 13 16.32 13 17 C8.71 17 4.42 17 0 17 C0 11.39 0 5.78 0 0 Z " fill="#ADF4FC" transform="translate(1036,134)"/>
<path d="M0 0 C9.22737307 -0.60706402 9.22737307 -0.60706402 12.625 2.0625 C14.34750853 5.74240459 14.57472081 7.97695433 14 12 C12.625 14.9375 12.625 14.9375 10 17 C6.55567995 17.42109242 3.49274738 17.22978601 0 17 C0 11.39 0 5.78 0 0 Z M2 2 C2 6.29 2 10.58 2 15 C6.63981875 15.37054871 6.63981875 15.37054871 10.9375 13.9375 C12.6140629 10.88023824 12.36528977 8.4093712 12 5 C11.08333333 2.91666667 11.08333333 2.91666667 9 2 C5.37464024 1.7496423 5.37464024 1.7496423 2 2 Z " fill="#ADF4FC" transform="translate(425,134)"/>
<path d="M0 0 C10.77777778 0 10.77777778 0 15 1 C16 2 16 2 16.09765625 4.50390625 C16.08605469 5.51324219 16.07445312 6.52257812 16.0625 7.5625 C16.05347656 8.57441406 16.04445313 9.58632812 16.03515625 10.62890625 C16.02355469 11.41136719 16.01195312 12.19382813 16 13 C15.34 13 14.68 13 14 13 C13.67 9.7 13.34 6.4 13 3 C12.01 3 11.02 3 10 3 C9.67 6.3 9.34 9.6 9 13 C8.34 13 7.68 13 7 13 C6.67 9.7 6.34 6.4 6 3 C5.01 3 4.02 3 3 3 C2.67 6.3 2.34 9.6 2 13 C1.34 13 0.68 13 0 13 C0 8.71 0 4.42 0 0 Z " fill="#ADF4FC" transform="translate(583,138)"/>
<path d="M0 0 C2.58926331 2.58926331 2.37398043 4.02705279 2.625 7.625 C2.69976563 8.62789062 2.77453125 9.63078125 2.8515625 10.6640625 C2.92503906 11.82035156 2.92503906 11.82035156 3 13 C1.54207116 13.05399736 0.08357288 13.09279177 -1.375 13.125 C-2.18710938 13.14820313 -2.99921875 13.17140625 -3.8359375 13.1953125 C-6 13 -6 13 -8 11 C-7.875 9 -7.875 9 -7 7 C-4.41847698 5.27898465 -3.15081975 5 0 5 C-0.33 4.34 -0.66 3.68 -1 3 C-3.31 3.33 -5.62 3.66 -8 4 C-7.67 3.01 -7.34 2.02 -7 1 C-4.48718205 -0.25640898 -2.78302919 -0.20872719 0 0 Z " fill="#ADF4FC" transform="translate(1059,138)"/>
<path d="M0 0 C2.58926331 2.58926331 2.37398043 4.02705279 2.625 7.625 C2.69976563 8.62789062 2.77453125 9.63078125 2.8515625 10.6640625 C2.92503906 11.82035156 2.92503906 11.82035156 3 13 C1.54207116 13.05399736 0.08357288 13.09279177 -1.375 13.125 C-2.18710937 13.14820313 -2.99921875 13.17140625 -3.8359375 13.1953125 C-6 13 -6 13 -8 11 C-7.875 9 -7.875 9 -7 7 C-4.41847698 5.27898465 -3.15081975 5 0 5 C-0.33 4.34 -0.66 3.68 -1 3 C-3.31 3.33 -5.62 3.66 -8 4 C-7.67 3.01 -7.34 2.02 -7 1 C-4.48718205 -0.25640898 -2.78302919 -0.20872719 0 0 Z " fill="#ADF4FC" transform="translate(950,138)"/>
<path d="M0 0 C2.58926331 2.58926331 2.37398043 4.02705279 2.625 7.625 C2.69976563 8.62789062 2.77453125 9.63078125 2.8515625 10.6640625 C2.92503906 11.82035156 2.92503906 11.82035156 3 13 C1.54207116 13.05399736 0.08357288 13.09279177 -1.375 13.125 C-2.18710937 13.14820313 -2.99921875 13.17140625 -3.8359375 13.1953125 C-6 13 -6 13 -8 11 C-7.875 9 -7.875 9 -7 7 C-4.41847698 5.27898465 -3.15081975 5 0 5 C-0.33 4.34 -0.66 3.68 -1 3 C-3.31 3.33 -5.62 3.66 -8 4 C-7.67 3.01 -7.34 2.02 -7 1 C-4.48718205 -0.25640898 -2.78302919 -0.20872719 0 0 Z " fill="#ADF4FC" transform="translate(873,138)"/>
<path d="M0 0 C1.8125 1.25 1.8125 1.25 3 3 C3 4.32 3 5.64 3 7 C0.03 7 -2.94 7 -6 7 C-5.01 8.485 -5.01 8.485 -4 10 C-0.535 9.505 -0.535 9.505 3 9 C1.8125 11 1.8125 11 0 13 C-2.84869344 13.49852135 -4.31219126 13.40319823 -6.8125 11.9375 C-8.67036623 8.90624457 -8.37133265 6.46577141 -8 3 C-5.95177941 -0.34183359 -3.7548828 -0.56323242 0 0 Z " fill="#9ACEE4" transform="translate(694,138)"/>
<path d="M0 0 C2.58926331 2.58926331 2.37398043 4.02705279 2.625 7.625 C2.69976563 8.62789062 2.77453125 9.63078125 2.8515625 10.6640625 C2.92503906 11.82035156 2.92503906 11.82035156 3 13 C1.54207116 13.05399736 0.08357288 13.09279177 -1.375 13.125 C-2.18710937 13.14820313 -2.99921875 13.17140625 -3.8359375 13.1953125 C-6 13 -6 13 -8 11 C-7.875 9 -7.875 9 -7 7 C-4.41847698 5.27898465 -3.15081975 5 0 5 C-0.33 4.34 -0.66 3.68 -1 3 C-3.31 3.33 -5.62 3.66 -8 4 C-7.67 3.01 -7.34 2.02 -7 1 C-4.48718205 -0.25640898 -2.78302919 -0.20872719 0 0 Z " fill="#ADF4FC" transform="translate(660,138)"/>
<path d="M0 0 C1.8125 1.25 1.8125 1.25 3 3 C3 4.32 3 5.64 3 7 C0.03 7 -2.94 7 -6 7 C-5.01 8.485 -5.01 8.485 -4 10 C-0.535 9.505 -0.535 9.505 3 9 C1.8125 11 1.8125 11 0 13 C-2.84869344 13.49852135 -4.31219126 13.40319823 -6.8125 11.9375 C-8.67036623 8.90624457 -8.37133265 6.46577141 -8 3 C-5.95177941 -0.34183359 -3.7548828 -0.56323242 0 0 Z " fill="#9ACEE4" transform="translate(647,138)"/>
<path d="M0 0 C1.8125 1.25 1.8125 1.25 3 3 C3 4.32 3 5.64 3 7 C0.03 7 -2.94 7 -6 7 C-5.01 8.485 -5.01 8.485 -4 10 C-0.535 9.505 -0.535 9.505 3 9 C1.8125 11 1.8125 11 0 13 C-2.84869344 13.49852135 -4.31219126 13.40319823 -6.8125 11.9375 C-8.67036623 8.90624457 -8.37133265 6.46577141 -8 3 C-5.95177941 -0.34183359 -3.7548828 -0.56323242 0 0 Z " fill="#9ACEE4" transform="translate(610,138)"/>
<path d="M0 0 C2.58926331 2.58926331 2.37398043 4.02705279 2.625 7.625 C2.69976563 8.62789062 2.77453125 9.63078125 2.8515625 10.6640625 C2.92503906 11.82035156 2.92503906 11.82035156 3 13 C1.54207116 13.05399736 0.08357288 13.09279177 -1.375 13.125 C-2.18710937 13.14820313 -2.99921875 13.17140625 -3.8359375 13.1953125 C-6 13 -6 13 -8 11 C-7.875 9 -7.875 9 -7 7 C-4.41847698 5.27898465 -3.15081975 5 0 5 C-0.33 4.34 -0.66 3.68 -1 3 C-3.31 3.33 -5.62 3.66 -8 4 C-7.67 3.01 -7.34 2.02 -7 1 C-4.48718205 -0.25640898 -2.78302919 -0.20872719 0 0 Z " fill="#ADF4FC" transform="translate(551,138)"/>
<path d="M0 0 C1.8125 1.25 1.8125 1.25 3 3 C3 4.32 3 5.64 3 7 C0.03 7 -2.94 7 -6 7 C-5.01 8.485 -5.01 8.485 -4 10 C-0.535 9.505 -0.535 9.505 3 9 C1.8125 11 1.8125 11 0 13 C-2.84869344 13.49852135 -4.31219126 13.40319823 -6.8125 11.9375 C-8.67036623 8.90624457 -8.37133265 6.46577141 -8 3 C-5.95177941 -0.34183359 -3.7548828 -0.56323242 0 0 Z " fill="#99CEE3" transform="translate(538,138)"/>
<path d="M0 0 C1.8125 1.25 1.8125 1.25 3 3 C3 4.32 3 5.64 3 7 C0.03 7 -2.94 7 -6 7 C-5.01 8.485 -5.01 8.485 -4 10 C-0.535 9.505 -0.535 9.505 3 9 C1.8125 11 1.8125 11 0 13 C-2.84869344 13.49852135 -4.31219126 13.40319823 -6.8125 11.9375 C-8.67036623 8.90624457 -8.37133265 6.46577141 -8 3 C-5.95177941 -0.34183359 -3.7548828 -0.56323242 0 0 Z " fill="#99CEE3" transform="translate(502,138)"/>
<path d="M0 0 C2.4375 1.4375 2.4375 1.4375 4 4 C4.18172684 6.303282 4.12669492 8.47848188 3.9453125 10.78125 C4.00839349 13.34053571 4.71743487 14.81267963 6 17 C5.34 16.67 4.68 16.34 4 16 C1.17829997 15.05943332 -0.19249344 14.96406505 -3.0625 15.125 C-7 15 -7 15 -9.5 13.4375 C-11.58392818 10.05111671 -11.55802097 7.90614682 -11 4 C-8.11188513 -0.5054592 -5.11821063 -0.73117295 0 0 Z M-9 4 C-9.47899838 8.68316534 -9.47899838 8.68316534 -7.8125 12.9375 C-5.29445572 14.41359492 -3.87523324 14.49089348 -1 14 C1.77389443 11.97580677 2.85519403 10.84814923 3.4375 7.4375 C3.14687075 5.01141807 3.14687075 5.01141807 1.9375 3.1875 C-1.78295443 0.90722148 -5.9159453 0.9159453 -9 4 Z " fill="#DAF0F9" transform="translate(1139,314)"/>
<path d="M0 0 C0.66 0 1.32 0 2 0 C2.66 1.98 3.32 3.96 4 6 C5.95216435 4.04783565 6.84826645 2.46800047 8 0 C10.7839183 1.39195915 10.97898997 3.15575779 12 6 C14.10232344 3.1315587 14.10232344 3.1315587 15 0 C15.66 0 16.32 0 17 0 C16.71517632 1.41805831 16.42181856 2.83440379 16.125 4.25 C15.96257813 5.03890625 15.80015625 5.8278125 15.6328125 6.640625 C15.00849925 8.96831144 14.15161458 10.89031952 13 13 C11 12 11 12 9.875 8.9375 C9.58625 7.968125 9.2975 6.99875 9 6 C7.45428722 8.31856917 6.20381448 10.50638429 5 13 C3 12 3 12 2.1484375 10.0390625 C1.89320313 9.24242187 1.63796875 8.44578125 1.375 7.625 C1.11460937 6.83351562 0.85421875 6.04203125 0.5859375 5.2265625 C0 3 0 3 0 0 Z " fill="#ADF4FC" transform="translate(621,138)"/>
<path d="M0 0 C0.66 0 1.32 0 2 0 C2 0.99 2 1.98 2 3 C3.32 3 4.64 3 6 3 C7.75 5.5 7.75 5.5 9 8 C9.66 6.35 10.32 4.7 11 3 C11.66 3 12.32 3 13 3 C12.54857225 4.77260631 12.08859477 6.5430368 11.625 8.3125 C11.36976563 9.29863281 11.11453125 10.28476562 10.8515625 11.30078125 C10 14 10 14 8 17 C7.01 17 6.02 17 5 17 C5 16.34 5 15.68 5 15 C5.66 14.67 6.32 14.34 7 14 C6.41196203 10.97580475 5.77321882 7.98241547 5 5 C4.01 5 3.02 5 2 5 C2 6.98 2 8.96 2 11 C2.66 11 3.32 11 4 11 C4 11.66 4 12.32 4 13 C2.68 12.67 1.36 12.34 0 12 C-0.19573608 10.56359829 -0.38127816 9.12580496 -0.5625 7.6875 C-0.66691406 6.88699219 -0.77132813 6.08648437 -0.87890625 5.26171875 C-1 3 -1 3 0 0 Z " fill="#9CA3AF" transform="translate(385,316)"/>
<path d="M0 0 C0.33 1.32 0.66 2.64 1 4 C1.99 4 2.98 4 4 4 C4 4.66 4 5.32 4 6 C3.01 6 2.02 6 1 6 C1 8.97 1 11.94 1 15 C1.99 15 2.98 15 4 15 C4 15.66 4 16.32 4 17 C2.35 16.67 0.7 16.34 -1 16 C-1 12.7 -1 9.4 -1 6 C-2.65 6.33 -4.3 6.66 -6 7 C-6.33 10.3 -6.66 13.6 -7 17 C-7.66 17 -8.32 17 -9 17 C-9 12.71 -9 8.42 -9 4 C-6.36 4 -3.72 4 -1 4 C-0.67 2.68 -0.34 1.36 0 0 Z " fill="#ADF4FC" transform="translate(1074,134)"/>
<path d="M0 0 C2.5 0.25 2.5 0.25 4.5 2.25 C4.75 5.25 4.75 5.25 4.5 8.25 C2.5 10.25 2.5 10.25 0 10.5 C-2.5 10.25 -2.5 10.25 -4.5 8.25 C-4.75 5.25 -4.75 5.25 -4.5 2.25 C-2.5 0.25 -2.5 0.25 0 0 Z " fill="#6FEAF9" transform="translate(813.5,409.75)"/>
<path d="M0 0 C2.5 0.25 2.5 0.25 4.5 2.25 C4.75 5.25 4.75 5.25 4.5 8.25 C2.5 10.25 2.5 10.25 0 10.5 C-2.5 10.25 -2.5 10.25 -4.5 8.25 C-4.75 5.25 -4.75 5.25 -4.5 2.25 C-2.5 0.25 -2.5 0.25 0 0 Z " fill="#71EAFA" transform="translate(773.5,409.75)"/>
<path d="M0 0 C2.5 0.25 2.5 0.25 4.5 2.25 C4.75 5.25 4.75 5.25 4.5 8.25 C2.5 10.25 2.5 10.25 0 10.5 C-2.5 10.25 -2.5 10.25 -4.5 8.25 C-4.75 5.25 -4.75 5.25 -4.5 2.25 C-2.5 0.25 -2.5 0.25 0 0 Z " fill="#9CA3AF" transform="translate(474.5,318.75)"/>
<path d="M0 0 C2.5 0.25 2.5 0.25 4.5 2.25 C4.75 5.25 4.75 5.25 4.5 8.25 C2.5 10.25 2.5 10.25 0 10.5 C-2.5 10.25 -2.5 10.25 -4.5 8.25 C-4.75 5.25 -4.75 5.25 -4.5 2.25 C-2.5 0.25 -2.5 0.25 0 0 Z " fill="#9CA3AF" transform="translate(434.5,318.75)"/>
<path d="M0 0 C2.5 0.25 2.5 0.25 4.5 2.25 C4.75 5.25 4.75 5.25 4.5 8.25 C2.5 10.25 2.5 10.25 0 10.5 C-2.5 10.25 -2.5 10.25 -4.5 8.25 C-4.75 5.25 -4.75 5.25 -4.5 2.25 C-2.5 0.25 -2.5 0.25 0 0 Z " fill="#9CA3AF" transform="translate(408.5,318.75)"/>
<path d="M0 0 C2.5 0.25 2.5 0.25 4.5 2.25 C4.75 5.25 4.75 5.25 4.5 8.25 C2.5 10.25 2.5 10.25 0 10.5 C-2.5 10.25 -2.5 10.25 -4.5 8.25 C-4.75 5.25 -4.75 5.25 -4.5 2.25 C-2.5 0.25 -2.5 0.25 0 0 Z " fill="#70EAFA" transform="translate(777.5,206.75)"/>
<path d="M0 0 C0.66 0 1.32 0 2 0 C2 0.99 2 1.98 2 3 C3.65 3 5.3 3 7 3 C7 6.3 7 9.6 7 13 C5.00045254 13.04254356 2.99958364 13.04080783 1 13 C-0.55383208 11.44616792 -0.38172542 9.77276704 -0.625 7.625 C-0.72039062 6.83351563 -0.81578125 6.04203125 -0.9140625 5.2265625 C-1 3 -1 3 0 0 Z " fill="#62638C" transform="translate(461,316)"/>
<path d="M0 0 C1.4540625 0.0309375 1.4540625 0.0309375 2.9375 0.0625 C3.5975 1.3825 4.2575 2.7025 4.9375 4.0625 C2.6275 3.7325 0.3175 3.4025 -2.0625 3.0625 C-1.464375 3.35125 -0.86625 3.64 -0.25 3.9375 C1.9375 5.0625 1.9375 5.0625 4.9375 7.0625 C4.0625 11.9375 4.0625 11.9375 2.9375 13.0625 C0.93791636 13.10330783 -1.06295254 13.10504356 -3.0625 13.0625 C-3.7225 11.7425 -4.3825 10.4225 -5.0625 9.0625 C-2.7525 9.3925 -0.4425 9.7225 1.9375 10.0625 C2.2675 9.4025 2.5975 8.7425 2.9375 8.0625 C1.98875 7.93875 1.04 7.815 0.0625 7.6875 C-3.0625 7.0625 -3.0625 7.0625 -5.0625 5.0625 C-4.45789299 1.07209375 -4.2025713 0.08576676 0 0 Z " fill="#ADF4FC" transform="translate(816.0625,137.9375)"/>
<path d="M0 0 C1.4540625 0.0309375 1.4540625 0.0309375 2.9375 0.0625 C3.5975 1.3825 4.2575 2.7025 4.9375 4.0625 C2.6275 3.7325 0.3175 3.4025 -2.0625 3.0625 C-1.464375 3.35125 -0.86625 3.64 -0.25 3.9375 C1.9375 5.0625 1.9375 5.0625 4.9375 7.0625 C4.0625 11.9375 4.0625 11.9375 2.9375 13.0625 C0.93791636 13.10330783 -1.06295254 13.10504356 -3.0625 13.0625 C-3.7225 11.7425 -4.3825 10.4225 -5.0625 9.0625 C-2.7525 9.3925 -0.4425 9.7225 1.9375 10.0625 C2.2675 9.4025 2.5975 8.7425 2.9375 8.0625 C1.98875 7.93875 1.04 7.815 0.0625 7.6875 C-3.0625 7.0625 -3.0625 7.0625 -5.0625 5.0625 C-4.45789299 1.07209375 -4.2025713 0.08576676 0 0 Z " fill="#ADF4FC" transform="translate(451.0625,137.9375)"/>
<path d="M0 0 C0.66 0 1.32 0 2 0 C2.33 1.65 2.66 3.3 3 5 C3.78375 4.79375 4.5675 4.5875 5.375 4.375 C6.674375 4.189375 6.674375 4.189375 8 4 C10 6 10 6 10.1953125 8.6015625 C10.17210937 9.59929687 10.14890625 10.59703125 10.125 11.625 C10.10695313 12.62789062 10.08890625 13.63078125 10.0703125 14.6640625 C10.03550781 15.82035156 10.03550781 15.82035156 10 17 C9.34 17 8.68 17 8 17 C7.67 13.7 7.34 10.4 7 7 C5.68 7.33 4.36 7.66 3 8 C2.67 10.97 2.34 13.94 2 17 C1.34 17 0.68 17 0 17 C0 11.39 0 5.78 0 0 Z " fill="#ADF4FC" transform="translate(1080,134)"/>
<path d="M0 0 C0.66 0 1.32 0 2 0 C2.33 1.65 2.66 3.3 3 5 C3.78375 4.79375 4.5675 4.5875 5.375 4.375 C6.674375 4.189375 6.674375 4.189375 8 4 C10 6 10 6 10.1953125 8.6015625 C10.17210937 9.59929687 10.14890625 10.59703125 10.125 11.625 C10.10695313 12.62789062 10.08890625 13.63078125 10.0703125 14.6640625 C10.03550781 15.82035156 10.03550781 15.82035156 10 17 C9.34 17 8.68 17 8 17 C7.67 13.7 7.34 10.4 7 7 C5.68 7.33 4.36 7.66 3 8 C2.67 10.97 2.34 13.94 2 17 C1.34 17 0.68 17 0 17 C0 11.39 0 5.78 0 0 Z " fill="#ADF4FC" transform="translate(673,134)"/>
<path d="M0 0 C1.4540625 0.0309375 1.4540625 0.0309375 2.9375 0.0625 C3.5975 1.3825 4.2575 2.7025 4.9375 4.0625 C2.6275 3.7325 0.3175 3.4025 -2.0625 3.0625 C-2.3925 3.7225 -2.7225 4.3825 -3.0625 5.0625 C-0.7525 5.7225 1.5575 6.3825 3.9375 7.0625 C4.2675 8.7125 4.5975 10.3625 4.9375 12.0625 C1.0871895 14.62937367 -0.64819763 13.89538724 -5.0625 13.0625 C-5.3925 11.7425 -5.7225 10.4225 -6.0625 9.0625 C-5.4025 9.0625 -4.7425 9.0625 -4.0625 9.0625 C-4.0625 9.7225 -4.0625 10.3825 -4.0625 11.0625 C-2.0825 11.0625 -0.1025 11.0625 1.9375 11.0625 C2.2675 10.0725 2.5975 9.0825 2.9375 8.0625 C1.98875 7.93875 1.04 7.815 0.0625 7.6875 C-3.0625 7.0625 -3.0625 7.0625 -5.0625 5.0625 C-4.45789299 1.07209375 -4.2025713 0.08576676 0 0 Z " fill="#FFFFFF" transform="translate(1175.0625,314.9375)"/>
<path d="M0 0 C1.4540625 0.0309375 1.4540625 0.0309375 2.9375 0.0625 C3.5975 1.3825 4.2575 2.7025 4.9375 4.0625 C2.6275 3.7325 0.3175 3.4025 -2.0625 3.0625 C-2.3925 3.7225 -2.7225 4.3825 -3.0625 5.0625 C-0.7525 5.7225 1.5575 6.3825 3.9375 7.0625 C4.2675 8.7125 4.5975 10.3625 4.9375 12.0625 C1.0871895 14.62937367 -0.64819763 13.89538724 -5.0625 13.0625 C-5.3925 11.7425 -5.7225 10.4225 -6.0625 9.0625 C-5.4025 9.0625 -4.7425 9.0625 -4.0625 9.0625 C-4.0625 9.7225 -4.0625 10.3825 -4.0625 11.0625 C-2.0825 11.0625 -0.1025 11.0625 1.9375 11.0625 C2.2675 10.0725 2.5975 9.0825 2.9375 8.0625 C1.98875 7.93875 1.04 7.815 0.0625 7.6875 C-3.0625 7.0625 -3.0625 7.0625 -5.0625 5.0625 C-4.45789299 1.07209375 -4.2025713 0.08576676 0 0 Z " fill="#9CA3AF" transform="translate(278.0625,314.9375)"/>
<path d="M0 0 C1.4540625 0.0309375 1.4540625 0.0309375 2.9375 0.0625 C3.5975 1.3825 4.2575 2.7025 4.9375 4.0625 C2.6275 3.7325 0.3175 3.4025 -2.0625 3.0625 C-2.3925 3.7225 -2.7225 4.3825 -3.0625 5.0625 C-0.7525 5.7225 1.5575 6.3825 3.9375 7.0625 C4.2675 8.7125 4.5975 10.3625 4.9375 12.0625 C1.0871895 14.62937367 -0.64819763 13.89538724 -5.0625 13.0625 C-5.3925 11.7425 -5.7225 10.4225 -6.0625 9.0625 C-5.4025 9.0625 -4.7425 9.0625 -4.0625 9.0625 C-4.0625 9.7225 -4.0625 10.3825 -4.0625 11.0625 C-2.0825 11.0625 -0.1025 11.0625 1.9375 11.0625 C2.2675 10.0725 2.5975 9.0825 2.9375 8.0625 C1.98875 7.93875 1.04 7.815 0.0625 7.6875 C-3.0625 7.0625 -3.0625 7.0625 -5.0625 5.0625 C-4.45789299 1.07209375 -4.2025713 0.08576676 0 0 Z " fill="#70EAFA" transform="translate(714.0625,202.9375)"/>
<path d="M0 0 C1.58272601 1.58272601 1.34735747 3.38034003 1.5625 5.5625 C1.64628906 6.38878906 1.73007812 7.21507812 1.81640625 8.06640625 C1.87699219 8.70449219 1.93757812 9.34257812 2 10 C-0.64 10 -3.28 10 -6 10 C-6.33 8.35 -6.66 6.7 -7 5 C-5.68 4.34 -4.36 3.68 -3 3 C-4.32 3 -5.64 3 -7 3 C-7 2.34 -7 1.68 -7 1 C-4.51588385 -0.24205807 -2.74800896 -0.14092354 0 0 Z " fill="#6BCFEA" transform="translate(797,410)"/>
<path d="M0 0 C1.58272601 1.58272601 1.34735747 3.38034003 1.5625 5.5625 C1.64628906 6.38878906 1.73007813 7.21507812 1.81640625 8.06640625 C1.87699219 8.70449219 1.93757813 9.34257812 2 10 C-0.64 10 -3.28 10 -6 10 C-6.33 8.35 -6.66 6.7 -7 5 C-5.68 4.34 -4.36 3.68 -3 3 C-4.32 3 -5.64 3 -7 3 C-7 2.34 -7 1.68 -7 1 C-4.51588385 -0.24205807 -2.74800896 -0.14092354 0 0 Z " fill="#DFEEFB" transform="translate(1200,319)"/>
<path d="M0 0 C1.2375 0.1546875 1.2375 0.1546875 2.5 0.3125 C4.5 3.3125 4.5 3.3125 4.5 6.3125 C2.52 6.6425 0.54 6.9725 -1.5 7.3125 C0.48 7.3125 2.46 7.3125 4.5 7.3125 C3.51 8.7975 3.51 8.7975 2.5 10.3125 C0 10.625 0 10.625 -2.5 10.3125 C-4.5 8.3125 -4.5 8.3125 -4.75 5.3125 C-4.43541678 1.53750135 -3.81908518 0.47738565 0 0 Z " fill="#E2F0FB" transform="translate(1186.5,318.6875)"/>
<path d="M0 0 C1.58272601 1.58272601 1.34735747 3.38034003 1.5625 5.5625 C1.64628906 6.38878906 1.73007812 7.21507812 1.81640625 8.06640625 C1.87699219 8.70449219 1.93757813 9.34257812 2 10 C-0.64 10 -3.28 10 -6 10 C-6.33 8.35 -6.66 6.7 -7 5 C-5.68 4.34 -4.36 3.68 -3 3 C-4.32 3 -5.64 3 -7 3 C-7 2.34 -7 1.68 -7 1 C-4.51588385 -0.24205807 -2.74800896 -0.14092354 0 0 Z " fill="#8C91A5" transform="translate(458,319)"/>
<path d="M0 0 C1.58272601 1.58272601 1.34735747 3.38034003 1.5625 5.5625 C1.64628906 6.38878906 1.73007812 7.21507812 1.81640625 8.06640625 C1.87699219 8.70449219 1.93757813 9.34257812 2 10 C-0.64 10 -3.28 10 -6 10 C-6.33 8.35 -6.66 6.7 -7 5 C-5.68 4.34 -4.36 3.68 -3 3 C-4.32 3 -5.64 3 -7 3 C-7 2.34 -7 1.68 -7 1 C-4.51588385 -0.24205807 -2.74800896 -0.14092354 0 0 Z " fill="#8C91A5" transform="translate(344,319)"/>
<path d="M0 0 C1.58272601 1.58272601 1.34735747 3.38034003 1.5625 5.5625 C1.64628906 6.38878906 1.73007812 7.21507812 1.81640625 8.06640625 C1.87699219 8.70449219 1.93757813 9.34257812 2 10 C-0.64 10 -3.28 10 -6 10 C-6.33 8.35 -6.66 6.7 -7 5 C-5.68 4.34 -4.36 3.68 -3 3 C-4.32 3 -5.64 3 -7 3 C-7 2.34 -7 1.68 -7 1 C-4.51588385 -0.24205807 -2.74800896 -0.14092354 0 0 Z " fill="#8C91A5" transform="translate(303,319)"/>
<path d="M0 0 C1.2375 0.1546875 1.2375 0.1546875 2.5 0.3125 C4.5 3.3125 4.5 3.3125 4.5 6.3125 C2.52 6.6425 0.54 6.9725 -1.5 7.3125 C0.48 7.3125 2.46 7.3125 4.5 7.3125 C3.51 8.7975 3.51 8.7975 2.5 10.3125 C0 10.625 0 10.625 -2.5 10.3125 C-4.5 8.3125 -4.5 8.3125 -4.75 5.3125 C-4.43541678 1.53750135 -3.81908518 0.47738565 0 0 Z " fill="#8E93A6" transform="translate(289.5,318.6875)"/>
<path d="M0 0 C3.28453 0 5.84698314 0.23304995 9 1 C10 2 10 2 10.09765625 4.50390625 C10.08605469 5.51324219 10.07445312 6.52257812 10.0625 7.5625 C10.05347656 8.57441406 10.04445313 9.58632812 10.03515625 10.62890625 C10.02355469 11.41136719 10.01195312 12.19382813 10 13 C9.34 13 8.68 13 8 13 C7.67 9.7 7.34 6.4 7 3 C5.68 3.33 4.36 3.66 3 4 C2.67 6.97 2.34 9.94 2 13 C1.34 13 0.68 13 0 13 C0 8.71 0 4.42 0 0 Z " fill="#ADF4FC" transform="translate(1015,138)"/>
<path d="M0 0 C3.28453 0 5.84698314 0.23304995 9 1 C10 2 10 2 10.09765625 4.50390625 C10.08605469 5.51324219 10.07445312 6.52257812 10.0625 7.5625 C10.05347656 8.57441406 10.04445313 9.58632812 10.03515625 10.62890625 C10.02355469 11.41136719 10.01195312 12.19382813 10 13 C9.34 13 8.68 13 8 13 C7.67 9.7 7.34 6.4 7 3 C5.68 3.33 4.36 3.66 3 4 C2.67 6.97 2.34 9.94 2 13 C1.34 13 0.68 13 0 13 C0 8.71 0 4.42 0 0 Z " fill="#ADF4FC" transform="translate(981,138)"/>
<path d="M0 0 C0.66 0 1.32 0 2 0 C2.99 2.64 3.98 5.28 5 8 C5.99 5.36 6.98 2.72 8 0 C8.66 0 9.32 0 10 0 C7.10933941 12.66970387 7.10933941 12.66970387 4 18 C3.01 18 2.02 18 1 18 C1 17.34 1 16.68 1 16 C1.66 15.67 2.32 15.34 3 15 C2.48846191 10.65192625 1.67863478 7.02872348 0 3 C0 2.01 0 1.02 0 0 Z " fill="#ADF4FC" transform="translate(892,138)"/>
<path d="M0 0 C3.28453 0 5.84698314 0.23304995 9 1 C10 2 10 2 10.09765625 4.50390625 C10.08605469 5.51324219 10.07445312 6.52257812 10.0625 7.5625 C10.05347656 8.57441406 10.04445313 9.58632812 10.03515625 10.62890625 C10.02355469 11.41136719 10.01195312 12.19382813 10 13 C9.34 13 8.68 13 8 13 C7.67 9.7 7.34 6.4 7 3 C5.68 3.33 4.36 3.66 3 4 C2.67 6.97 2.34 9.94 2 13 C1.34 13 0.68 13 0 13 C0 8.71 0 4.42 0 0 Z " fill="#ADF4FC" transform="translate(879,138)"/>
<path d="M0 0 C3.28453 0 5.84698314 0.23304995 9 1 C10 2 10 2 10.09765625 4.50390625 C10.08605469 5.51324219 10.07445312 6.52257812 10.0625 7.5625 C10.05347656 8.57441406 10.04445313 9.58632812 10.03515625 10.62890625 C10.02355469 11.41136719 10.01195312 12.19382813 10 13 C9.34 13 8.68 13 8 13 C7.67 9.7 7.34 6.4 7 3 C5.68 3.33 4.36 3.66 3 4 C2.67 6.97 2.34 9.94 2 13 C1.34 13 0.68 13 0 13 C0 8.71 0 4.42 0 0 Z " fill="#ADF4FC" transform="translate(798,138)"/>
<path d="M0 0 C3.28453 0 5.84698314 0.23304995 9 1 C10 2 10 2 10.09765625 4.50390625 C10.08605469 5.51324219 10.07445312 6.52257812 10.0625 7.5625 C10.05347656 8.57441406 10.04445313 9.58632812 10.03515625 10.62890625 C10.02355469 11.41136719 10.01195312 12.19382813 10 13 C9.34 13 8.68 13 8 13 C7.67 9.7 7.34 6.4 7 3 C5.68 3.33 4.36 3.66 3 4 C2.67 6.97 2.34 9.94 2 13 C1.34 13 0.68 13 0 13 C0 8.71 0 4.42 0 0 Z " fill="#ADF4FC" transform="translate(740,138)"/>
<path d="M0 0 C0.66 0 1.32 0 2 0 C2.66 1.32 3.32 2.64 4 4 C4.66 2.68 5.32 1.36 6 0 C6.66 0.33 7.32 0.66 8 1 C8.33 1.99 8.66 2.98 9 4 C9.66 2.68 10.32 1.36 11 0 C11.66 0 12.32 0 13 0 C12.745504 1.48206495 12.47088238 2.96068615 12.1875 4.4375 C12.03667969 5.26121094 11.88585937 6.08492187 11.73046875 6.93359375 C11.36888672 7.95646484 11.36888672 7.95646484 11 9 C10.01 9.33 9.02 9.66 8 10 C7.34 8.68 6.68 7.36 6 6 C5.67 7.32 5.34 8.64 5 10 C4.01 9.67 3.02 9.34 2 9 C1.26953125 6.93359375 1.26953125 6.93359375 0.8125 4.4375 C0.65394531 3.61121094 0.49539063 2.78492188 0.33203125 1.93359375 C0.16767578 0.97646484 0.16767578 0.97646484 0 0 Z " fill="#70EAFA" transform="translate(720,207)"/>
<path d="M0 0 C0.66 0 1.32 0 2 0 C2.33 1.32 2.66 2.64 3 4 C4.65 4.33 6.3 4.66 8 5 C8 7.97 8 10.94 8 14 C7.34 14 6.68 14 6 14 C6 11.36 6 8.72 6 6 C5.01 6.33 4.02 6.66 3 7 C2.67 9.31 2.34 11.62 2 14 C1.34 14 0.68 14 0 14 C0 9.38 0 4.76 0 0 Z " fill="#FFFFFF" transform="translate(1219,315)"/>
<path d="M0 0 C0.66 0 1.32 0 2 0 C2.33 1.32 2.66 2.64 3 4 C4.65 4.33 6.3 4.66 8 5 C8 7.97 8 10.94 8 14 C7.34 14 6.68 14 6 14 C6 11.36 6 8.72 6 6 C5.01 6.33 4.02 6.66 3 7 C2.67 9.31 2.34 11.62 2 14 C1.34 14 0.68 14 0 14 C0 9.38 0 4.76 0 0 Z " fill="#9CA3AF" transform="translate(322,315)"/>
<path d="M0 0 C0.66 0 1.32 0 2 0 C2.33 1.32 2.66 2.64 3 4 C4.65 4.33 6.3 4.66 8 5 C8 7.97 8 10.94 8 14 C7.34 14 6.68 14 6 14 C6 11.36 6 8.72 6 6 C5.01 6.33 4.02 6.66 3 7 C2.67 9.31 2.34 11.62 2 14 C1.34 14 0.68 14 0 14 C0 9.38 0 4.76 0 0 Z " fill="#6FEAF9" transform="translate(753,203)"/>
<path d="M0 0 C0.66 1.32 1.32 2.64 2 4 C1.030625 3.814375 0.06125 3.62875 -0.9375 3.4375 C-1.948125 3.293125 -2.95875 3.14875 -4 3 C-5.41577477 4.18424326 -5.41577477 4.18424326 -5.0625 7.5625 C-5.041875 8.696875 -5.02125 9.83125 -5 11 C-2.69 10.34 -0.38 9.68 2 9 C1.34 10.32 0.68 11.64 0 13 C-2.70313576 13.21917317 -4.43958382 13.32851983 -6.8125 11.9375 C-8.67036623 8.90624457 -8.37133265 6.46577141 -8 3 C-5.91685466 -0.39881608 -3.78885018 -0.30720407 0 0 Z " fill="#ADF4FC" transform="translate(938,138)"/>
<path d="M0 0 C0.66 1.32 1.32 2.64 2 4 C1.030625 3.814375 0.06125 3.62875 -0.9375 3.4375 C-1.948125 3.293125 -2.95875 3.14875 -4 3 C-5.41577477 4.18424326 -5.41577477 4.18424326 -5.0625 7.5625 C-5.041875 8.696875 -5.02125 9.83125 -5 11 C-2.69 10.34 -0.38 9.68 2 9 C1.34 10.32 0.68 11.64 0 13 C-2.70313576 13.21917317 -4.43958382 13.32851983 -6.8125 11.9375 C-8.67036623 8.90624457 -8.37133265 6.46577141 -8 3 C-5.91685466 -0.39881608 -3.78885018 -0.30720407 0 0 Z " fill="#ADF4FC" transform="translate(722,138)"/>
<path d="M0 0 C0.66 1.32 1.32 2.64 2 4 C1.030625 3.814375 0.06125 3.62875 -0.9375 3.4375 C-1.948125 3.293125 -2.95875 3.14875 -4 3 C-5.41577477 4.18424326 -5.41577477 4.18424326 -5.0625 7.5625 C-5.041875 8.696875 -5.02125 9.83125 -5 11 C-2.69 10.34 -0.38 9.68 2 9 C1.34 10.32 0.68 11.64 0 13 C-2.70313576 13.21917317 -4.43958382 13.32851983 -6.8125 11.9375 C-8.67036623 8.90624457 -8.37133265 6.46577141 -8 3 C-5.91685466 -0.39881608 -3.78885018 -0.30720407 0 0 Z " fill="#ADF4FC" transform="translate(466,138)"/>
<path d="M0 0 C2.97 0 5.94 0 9 0 C9 0.66 9 1.32 9 2 C6.69 2 4.38 2 2 2 C2 3.32 2 4.64 2 6 C3.98 6 5.96 6 8 6 C8 6.66 8 7.32 8 8 C6.02 8 4.04 8 2 8 C2 9.98 2 11.96 2 14 C1.34 14 0.68 14 0 14 C0 9.38 0 4.76 0 0 Z " fill="#70EAFA" transform="translate(798,203)"/>
<path d="M0 0 C-0.75 5.75 -0.75 5.75 -3 8 C-4.98821313 8.39764263 -6.98944339 8.73775349 -9 9 C-8.8125 6.1875 -8.8125 6.1875 -8 3 C-5.11373339 0.72136847 -3.6952982 0 0 0 Z " fill="#6AD3EB" transform="translate(701,409)"/>
<path d="M0 0 C3.53571429 0.53571429 3.53571429 0.53571429 5 2 C5.1875 4.4375 5.1875 4.4375 5 7 C4.34 7.66 3.68 8.32 3 9 C-0.53571429 8.46428571 -0.53571429 8.46428571 -2 7 C-2.1875 4.5625 -2.1875 4.5625 -2 2 C-1.34 1.34 -0.68 0.68 0 0 Z " fill="#4E1D80" transform="translate(1005,140)"/>
<path d="M0 0 C3.53571429 0.53571429 3.53571429 0.53571429 5 2 C5.1875 4.4375 5.1875 4.4375 5 7 C4.34 7.66 3.68 8.32 3 9 C-0.53571429 8.46428571 -0.53571429 8.46428571 -2 7 C-2.1875 4.5625 -2.1875 4.5625 -2 2 C-1.34 1.34 -0.68 0.68 0 0 Z " fill="#4D1D7F" transform="translate(971,140)"/>
<path d="M0 0 C3.53571429 0.53571429 3.53571429 0.53571429 5 2 C5.1875 4.4375 5.1875 4.4375 5 7 C4.34 7.66 3.68 8.32 3 9 C-0.53571429 8.46428571 -0.53571429 8.46428571 -2 7 C-2.1875 4.5625 -2.1875 4.5625 -2 2 C-1.34 1.34 -0.68 0.68 0 0 Z " fill="#4B1D7E" transform="translate(921,140)"/>
<path d="M0 0 C3.53571429 0.53571429 3.53571429 0.53571429 5 2 C5.1875 4.4375 5.1875 4.4375 5 7 C4.34 7.66 3.68 8.32 3 9 C-0.53571429 8.46428571 -0.53571429 8.46428571 -2 7 C-2.1875 4.5625 -2.1875 4.5625 -2 2 C-1.34 1.34 -0.68 0.68 0 0 Z " fill="#491D7B" transform="translate(841,140)"/>
<path d="M0 0 C3.53571429 0.53571429 3.53571429 0.53571429 5 2 C5.1875 4.4375 5.1875 4.4375 5 7 C4.34 7.66 3.68 8.32 3 9 C-0.53571429 8.46428571 -0.53571429 8.46428571 -2 7 C-2.1875 4.5625 -2.1875 4.5625 -2 2 C-1.34 1.34 -0.68 0.68 0 0 Z " fill="#471D7A" transform="translate(788,140)"/>
<path d="M0 0 C3.53571429 0.53571429 3.53571429 0.53571429 5 2 C5.1875 4.4375 5.1875 4.4375 5 7 C4.34 7.66 3.68 8.32 3 9 C-0.53571429 8.46428571 -0.53571429 8.46428571 -2 7 C-2.1875 4.5625 -2.1875 4.5625 -2 2 C-1.34 1.34 -0.68 0.68 0 0 Z " fill="#461D78" transform="translate(757,140)"/>
<path d="M0 0 C3.53571429 0.53571429 3.53571429 0.53571429 5 2 C5.1875 4.4375 5.1875 4.4375 5 7 C4.34 7.66 3.68 8.32 3 9 C-0.53571429 8.46428571 -0.53571429 8.46428571 -2 7 C-2.1875 4.5625 -2.1875 4.5625 -2 2 C-1.34 1.34 -0.68 0.68 0 0 Z " fill="#451D77" transform="translate(730,140)"/>
<path d="M0 0 C3.53571429 0.53571429 3.53571429 0.53571429 5 2 C5.1875 4.4375 5.1875 4.4375 5 7 C4.34 7.66 3.68 8.32 3 9 C-0.53571429 8.46428571 -0.53571429 8.46428571 -2 7 C-2.1875 4.5625 -2.1875 4.5625 -2 2 C-1.34 1.34 -0.68 0.68 0 0 Z " fill="#3D1D6F" transform="translate(474,140)"/>
<path d="M0 0 C1.32 0 2.64 0 4 0 C4 0.66 4 1.32 4 2 C3.01 2 2.02 2 1 2 C1 2.66 1 3.32 1 4 C1.99 4 2.98 4 4 4 C4 4.66 4 5.32 4 6 C3.01 6 2.02 6 1 6 C1 9.63 1 13.26 1 17 C0.34 17 -0.32 17 -1 17 C-1 13.37 -1 9.74 -1 6 C-1.66 6 -2.32 6 -3 6 C-3 5.34 -3 4.68 -3 4 C-2.34 4 -1.68 4 -1 4 C-0.67 2.68 -0.34 1.36 0 0 Z " fill="#ADF4FC" transform="translate(832,134)"/>
<path d="M0 0 C0.33 1.32 0.66 2.64 1 4 C1.99 4 2.98 4 4 4 C4 4.66 4 5.32 4 6 C3.01 6 2.02 6 1 6 C1 8.97 1 11.94 1 15 C1.99 15 2.98 15 4 15 C4 15.66 4 16.32 4 17 C2.35 16.67 0.7 16.34 -1 16 C-1 12.7 -1 9.4 -1 6 C-1.66 6 -2.32 6 -3 6 C-3 5.34 -3 4.68 -3 4 C-2.34 4 -1.68 4 -1 4 C-0.67 2.68 -0.34 1.36 0 0 Z " fill="#ADF4FC" transform="translate(957,134)"/>
<path d="M0 0 C0.33 1.32 0.66 2.64 1 4 C1.99 4 2.98 4 4 4 C4 4.66 4 5.32 4 6 C3.01 6 2.02 6 1 6 C1 8.97 1 11.94 1 15 C1.99 15 2.98 15 4 15 C4 15.66 4 16.32 4 17 C2.35 16.67 0.7 16.34 -1 16 C-1 12.7 -1 9.4 -1 6 C-1.66 6 -2.32 6 -3 6 C-3 5.34 -3 4.68 -3 4 C-2.34 4 -1.68 4 -1 4 C-0.67 2.68 -0.34 1.36 0 0 Z " fill="#ADF4FC" transform="translate(774,134)"/>
<path d="M0 0 C0.33 1.32 0.66 2.64 1 4 C1.99 4 2.98 4 4 4 C4 4.66 4 5.32 4 6 C3.01 6 2.02 6 1 6 C1 8.97 1 11.94 1 15 C1.99 15 2.98 15 4 15 C4 15.66 4 16.32 4 17 C2.35 16.67 0.7 16.34 -1 16 C-1 12.7 -1 9.4 -1 6 C-1.66 6 -2.32 6 -3 6 C-3 5.34 -3 4.68 -3 4 C-2.34 4 -1.68 4 -1 4 C-0.67 2.68 -0.34 1.36 0 0 Z " fill="#ADF4FC" transform="translate(667,134)"/>
<path d="M0 0 C0.33 1.32 0.66 2.64 1 4 C1.99 4 2.98 4 4 4 C4 4.66 4 5.32 4 6 C3.01 6 2.02 6 1 6 C1 8.97 1 11.94 1 15 C1.99 15 2.98 15 4 15 C4 15.66 4 16.32 4 17 C2.35 16.67 0.7 16.34 -1 16 C-1 12.7 -1 9.4 -1 6 C-1.66 6 -2.32 6 -3 6 C-3 5.34 -3 4.68 -3 4 C-2.34 4 -1.68 4 -1 4 C-0.67 2.68 -0.34 1.36 0 0 Z " fill="#ADF4FC" transform="translate(572,134)"/>
<path d="M0 0 C2.33294775 -0.04241723 4.66702567 -0.04092937 7 0 C8 1 8 1 8.09765625 3.06640625 C8.08605469 3.89011719 8.07445312 4.71382813 8.0625 5.5625 C8.05347656 6.38878906 8.04445313 7.21507812 8.03515625 8.06640625 C8.02355469 8.70449219 8.01195312 9.34257812 8 10 C7.34 10 6.68 10 6 10 C6 7.36 6 4.72 6 2 C5.01 2.33 4.02 2.66 3 3 C2.67 5.31 2.34 7.62 2 10 C1.34 10 0.68 10 0 10 C0 6.7 0 3.4 0 0 Z " fill="#70EAFA" transform="translate(820,410)"/>
<path d="M0 0 C0.66 0 1.32 0 2 0 C3.625 2.5 3.625 2.5 5 5 C5.66 3.35 6.32 1.7 7 0 C7.66 0 8.32 0 9 0 C8.54857225 1.77260631 8.08859477 3.5430368 7.625 5.3125 C7.36976563 6.29863281 7.11453125 7.28476562 6.8515625 8.30078125 C6 11 6 11 4 14 C3.01 14 2.02 14 1 14 C1 13.34 1 12.68 1 12 C1.66 11.67 2.32 11.34 3 11 C2.32829194 7.1936543 1.27253436 3.64793184 0 0 Z " fill="#71EAFA" transform="translate(743,410)"/>
<path d="M0 0 C2.33294775 -0.04241723 4.66702567 -0.04092937 7 0 C8 1 8 1 8.09765625 3.06640625 C8.08605469 3.89011719 8.07445312 4.71382813 8.0625 5.5625 C8.05347656 6.38878906 8.04445313 7.21507812 8.03515625 8.06640625 C8.02355469 8.70449219 8.01195312 9.34257812 8 10 C7.34 10 6.68 10 6 10 C6 7.36 6 4.72 6 2 C5.01 2.33 4.02 2.66 3 3 C2.67 5.31 2.34 7.62 2 10 C1.34 10 0.68 10 0 10 C0 6.7 0 3.4 0 0 Z " fill="#9CA3AF" transform="translate(481,319)"/>
<path d="M0 0 C0.66 0 1.32 0 2 0 C3.625 2.5 3.625 2.5 5 5 C5.66 3.35 6.32 1.7 7 0 C7.66 0 8.32 0 9 0 C8.54857225 1.77260631 8.08859477 3.5430368 7.625 5.3125 C7.36976563 6.29863281 7.11453125 7.28476562 6.8515625 8.30078125 C6 11 6 11 4 14 C3.01 14 2.02 14 1 14 C1 13.34 1 12.68 1 12 C1.66 11.67 2.32 11.34 3 11 C2.32829194 7.1936543 1.27253436 3.64793184 0 0 Z " fill="#9CA3AF" transform="translate(356,319)"/>
<path d="M0 0 C2.33294775 -0.04241723 4.66702567 -0.04092937 7 0 C8 1 8 1 8.09765625 3.06640625 C8.08605469 3.89011719 8.07445312 4.71382813 8.0625 5.5625 C8.05347656 6.38878906 8.04445313 7.21507812 8.03515625 8.06640625 C8.02355469 8.70449219 8.01195312 9.34257812 8 10 C7.34 10 6.68 10 6 10 C6 7.36 6 4.72 6 2 C5.01 2.33 4.02 2.66 3 3 C2.67 5.31 2.34 7.62 2 10 C1.34 10 0.68 10 0 10 C0 6.7 0 3.4 0 0 Z " fill="#9CA3AF" transform="translate(347,319)"/>
<path d="M0 0 C0.66 0 1.32 0 2 0 C2.99 2.31 3.98 4.62 5 7 C7.22189824 4.77810176 7.92598892 2.91517292 9 0 C9.66 0 10.32 0 11 0 C10.57476184 1.60746056 10.13429874 3.21089836 9.6875 4.8125 C9.44386719 5.70582031 9.20023437 6.59914062 8.94921875 7.51953125 C7.9799181 10.05247738 7.04990396 11.2716496 5 13 C0.59225513 4.738041 0.59225513 4.738041 0 0 Z " fill="#ADF4FC" transform="translate(482,138)"/>
<path d="M0 0 C2.5625 0.25 2.5625 0.25 5 1 C5.33 1.66 5.66 2.32 6 3 C4.35 3 2.7 3 1 3 C1 4.32 1 5.64 1 7 C2.65 7 4.3 7 6 7 C5.01 8.485 5.01 8.485 4 10 C-0.875 9.125 -0.875 9.125 -2 8 C-2.1875 5.0625 -2.1875 5.0625 -2 2 C-1.34 1.34 -0.68 0.68 0 0 Z " fill="#71EAFA" transform="translate(782,410)"/>
<path d="M0 0 C0.66 0 1.32 0 2 0 C2 3.96 2 7.92 2 12 C3.98 12 5.96 12 8 12 C8 12.66 8 13.32 8 14 C5.36 14 2.72 14 0 14 C0 9.38 0 4.76 0 0 Z " fill="#71EAFA" transform="translate(759,406)"/>
<path d="M0 0 C2.5625 0.25 2.5625 0.25 5 1 C5.33 1.66 5.66 2.32 6 3 C4.35 3 2.7 3 1 3 C1 4.32 1 5.64 1 7 C2.65 7 4.3 7 6 7 C5.01 8.485 5.01 8.485 4 10 C-0.875 9.125 -0.875 9.125 -2 8 C-2.1875 5.0625 -2.1875 5.0625 -2 2 C-1.34 1.34 -0.68 0.68 0 0 Z " fill="#FFFFFF" transform="translate(1211,319)"/>
<path d="M0 0 C2.5625 0.25 2.5625 0.25 5 1 C5.33 1.66 5.66 2.32 6 3 C4.35 3 2.7 3 1 3 C1 4.32 1 5.64 1 7 C2.65 7 4.3 7 6 7 C5.01 8.485 5.01 8.485 4 10 C-0.875 9.125 -0.875 9.125 -2 8 C-2.1875 5.0625 -2.1875 5.0625 -2 2 C-1.34 1.34 -0.68 0.68 0 0 Z " fill="#9CA3AF" transform="translate(443,319)"/>
<path d="M0 0 C2.5625 0.25 2.5625 0.25 5 1 C5.33 1.66 5.66 2.32 6 3 C4.35 3 2.7 3 1 3 C1 4.32 1 5.64 1 7 C2.65 7 4.3 7 6 7 C5.01 8.485 5.01 8.485 4 10 C-0.875 9.125 -0.875 9.125 -2 8 C-2.1875 5.0625 -2.1875 5.0625 -2 2 C-1.34 1.34 -0.68 0.68 0 0 Z " fill="#9CA3AF" transform="translate(373,319)"/>
<path d="M0 0 C2.5625 0.25 2.5625 0.25 5 1 C5.33 1.66 5.66 2.32 6 3 C4.35 3 2.7 3 1 3 C1 4.32 1 5.64 1 7 C2.65 7 4.3 7 6 7 C5.01 8.485 5.01 8.485 4 10 C-0.875 9.125 -0.875 9.125 -2 8 C-2.1875 5.0625 -2.1875 5.0625 -2 2 C-1.34 1.34 -0.68 0.68 0 0 Z " fill="#9CA3AF" transform="translate(314,319)"/>
<path d="M0 0 C2.5625 0.25 2.5625 0.25 5 1 C5.33 1.66 5.66 2.32 6 3 C4.35 3 2.7 3 1 3 C1 4.32 1 5.64 1 7 C2.65 7 4.3 7 6 7 C5.01 8.485 5.01 8.485 4 10 C-0.875 9.125 -0.875 9.125 -2 8 C-2.1875 5.0625 -2.1875 5.0625 -2 2 C-1.34 1.34 -0.68 0.68 0 0 Z " fill="#70EAFA" transform="translate(745,207)"/>
<path d="M0 0 C0.66 0.33 1.32 0.66 2 1 C1.96519531 1.90492188 1.96519531 1.90492188 1.9296875 2.828125 C1.91164063 3.62734375 1.89359375 4.4265625 1.875 5.25 C1.84019531 6.43335938 1.84019531 6.43335938 1.8046875 7.640625 C2.0171622 10.20731941 2.71345895 11.7916067 4 14 C3.34 13.67 2.68 13.34 2 13 C-1.86061033 11.71312989 -4.94150283 11.86242382 -9 12 C-9.33 11.34 -9.66 10.68 -10 10 C-8.906875 10.061875 -7.81375 10.12375 -6.6875 10.1875 C-3.17176085 10.2771913 -3.17176085 10.2771913 -1.0625 8.9375 C0.55479605 5.98831309 0.18630138 3.29132441 0 0 Z " fill="#E3F4FA" transform="translate(1141,317)"/>
<path d="M0 0 C0.66 0 1.32 0 2 0 C2 0.99 2 1.98 2 3 C2.66 3 3.32 3 4 3 C4 3.66 4 4.32 4 5 C3.34 5 2.68 5 2 5 C2 6.98 2 8.96 2 11 C2.66 11 3.32 11 4 11 C4 11.66 4 12.32 4 13 C2.68 12.67 1.36 12.34 0 12 C-0.19573608 10.56359829 -0.38127816 9.12580496 -0.5625 7.6875 C-0.66691406 6.88699219 -0.77132812 6.08648437 -0.87890625 5.26171875 C-1 3 -1 3 0 0 Z " fill="#6FEAF9" transform="translate(800,407)"/>
<path d="M0 0 C0.66 0 1.32 0 2 0 C2 0.99 2 1.98 2 3 C2.66 3 3.32 3 4 3 C4 3.66 4 4.32 4 5 C3.34 5 2.68 5 2 5 C2 6.98 2 8.96 2 11 C2.66 11 3.32 11 4 11 C4 11.66 4 12.32 4 13 C2.68 12.67 1.36 12.34 0 12 C-0.19573608 10.56359829 -0.38127816 9.12580496 -0.5625 7.6875 C-0.66691406 6.88699219 -0.77132813 6.08648437 -0.87890625 5.26171875 C-1 3 -1 3 0 0 Z " fill="#9CA3AF" transform="translate(461,316)"/>
<path d="M0 0 C0.66 0 1.32 0 2 0 C2 0.99 2 1.98 2 3 C2.66 3 3.32 3 4 3 C4 3.66 4 4.32 4 5 C3.34 5 2.68 5 2 5 C2 6.98 2 8.96 2 11 C2.66 11 3.32 11 4 11 C4 11.66 4 12.32 4 13 C2.68 12.67 1.36 12.34 0 12 C-0.19573608 10.56359829 -0.38127816 9.12580496 -0.5625 7.6875 C-0.66691406 6.88699219 -0.77132812 6.08648437 -0.87890625 5.26171875 C-1 3 -1 3 0 0 Z " fill="#70EAFA" transform="translate(768,204)"/>
<path d="M0 0 C0.66 0 1.32 0 2 0 C2 0.99 2 1.98 2 3 C2.66 3 3.32 3 4 3 C4 3.66 4 4.32 4 5 C3.34 5 2.68 5 2 5 C2 6.98 2 8.96 2 11 C2.66 11 3.32 11 4 11 C4 11.66 4 12.32 4 13 C2.68 12.67 1.36 12.34 0 12 C-0.19573608 10.56359829 -0.38127816 9.12580496 -0.5625 7.6875 C-0.66691406 6.88699219 -0.77132812 6.08648437 -0.87890625 5.26171875 C-1 3 -1 3 0 0 Z " fill="#70EAFA" transform="translate(738,204)"/>
<path d="M0 0 C1.98 0 3.96 0 6 0 C6 0.66 6 1.32 6 2 C5.01 2.33 4.02 2.66 3 3 C2.67 6.3 2.34 9.6 2 13 C1.34 13 0.68 13 0 13 C0 8.71 0 4.42 0 0 Z " fill="#ADF4FC" transform="translate(851,138)"/>
<path d="M0 0 C1.98 0 3.96 0 6 0 C6 0.66 6 1.32 6 2 C5.01 2.33 4.02 2.66 3 3 C2.67 6.3 2.34 9.6 2 13 C1.34 13 0.68 13 0 13 C0 8.71 0 4.42 0 0 Z " fill="#ADF4FC" transform="translate(700,138)"/>
<path d="M0 0 C1.98 0 3.96 0 6 0 C6 0.66 6 1.32 6 2 C5.01 2.33 4.02 2.66 3 3 C2.67 6.3 2.34 9.6 2 13 C1.34 13 0.68 13 0 13 C0 8.71 0 4.42 0 0 Z " fill="#ADF4FC" transform="translate(523,138)"/>
<path d="M0 0 C1.98 0 3.96 0 6 0 C6 0.66 6 1.32 6 2 C5.01 2.33 4.02 2.66 3 3 C2.67 6.3 2.34 9.6 2 13 C1.34 13 0.68 13 0 13 C0 8.71 0 4.42 0 0 Z " fill="#ADF4FC" transform="translate(508,138)"/>
<path d="M0 0 C1.98 0.495 1.98 0.495 4 1 C3.67 2.65 3.34 4.3 3 6 C1.68 5.67 0.36 5.34 -1 5 C-0.67 3.35 -0.34 1.7 0 0 Z " fill="#442788" transform="translate(812,412)"/>
<path d="M0 0 C1.98 0.495 1.98 0.495 4 1 C3.67 2.65 3.34 4.3 3 6 C1.68 5.67 0.36 5.34 -1 5 C-0.67 3.35 -0.34 1.7 0 0 Z " fill="#44278A" transform="translate(772,412)"/>
<path d="M0 0 C1.98 0.495 1.98 0.495 4 1 C3.67 2.65 3.34 4.3 3 6 C1.68 5.67 0.36 5.34 -1 5 C-0.67 3.35 -0.34 1.7 0 0 Z " fill="#292469" transform="translate(473,321)"/>
<path d="M0 0 C1.98 0.495 1.98 0.495 4 1 C3.67 2.65 3.34 4.3 3 6 C1.68 5.67 0.36 5.34 -1 5 C-0.67 3.35 -0.34 1.7 0 0 Z " fill="#292469" transform="translate(433,321)"/>
<path d="M0 0 C1.98 0.495 1.98 0.495 4 1 C3.67 2.65 3.34 4.3 3 6 C1.68 5.67 0.36 5.34 -1 5 C-0.67 3.35 -0.34 1.7 0 0 Z " fill="#292468" transform="translate(407,321)"/>
<path d="M0 0 C1.65 0 3.3 0 5 0 C5 0.66 5 1.32 5 2 C4.01 2.495 4.01 2.495 3 3 C2.59270772 5.32156597 2.25561323 7.6568787 2 10 C1.34 10 0.68 10 0 10 C0 6.7 0 3.4 0 0 Z " fill="#FFFFFF" transform="translate(1203,319)"/>
<path d="M0 0 C1.65 0 3.3 0 5 0 C5 0.66 5 1.32 5 2 C4.01 2.495 4.01 2.495 3 3 C2.59270772 5.32156597 2.25561323 7.6568787 2 10 C1.34 10 0.68 10 0 10 C0 6.7 0 3.4 0 0 Z " fill="#9CA3AF" transform="translate(415,319)"/>
<path d="M0 0 C1.65 0 3.3 0 5 0 C5 0.66 5 1.32 5 2 C4.01 2.495 4.01 2.495 3 3 C2.59270772 5.32156597 2.25561323 7.6568787 2 10 C1.34 10 0.68 10 0 10 C0 6.7 0 3.4 0 0 Z " fill="#9CA3AF" transform="translate(306,319)"/>
<path d="M0 0 C1.98 0.495 1.98 0.495 4 1 C3.67 2.65 3.34 4.3 3 6 C1.68 5.67 0.36 5.34 -1 5 C-0.67 3.35 -0.34 1.7 0 0 Z " fill="#402784" transform="translate(776,209)"/>
<path d="M0 0 C1.98 0.495 1.98 0.495 4 1 C3.67 2.32 3.34 3.64 3 5 C1.68 4.67 0.36 4.34 -1 4 C-0.67 2.68 -0.34 1.36 0 0 Z " fill="#5B96C7" transform="translate(790,203)"/>
<path d="M0 0 C0.66 0.33 1.32 0.66 2 1 C2 2.32 2 3.64 2 5 C1.01 5.33 0.02 5.66 -1 6 C-1.625 4.125 -1.625 4.125 -2 2 C-1.34 1.34 -0.68 0.68 0 0 Z " fill="#5888BE" transform="translate(695,410)"/>
<path d="M0 0 C2 1 2 1 2.6328125 2.84765625 C2.79523438 3.57855469 2.95765625 4.30945313 3.125 5.0625 C3.29257813 5.79597656 3.46015625 6.52945312 3.6328125 7.28515625 C3.75398438 7.85105469 3.87515625 8.41695313 4 9 C3.01 9 2.02 9 1 9 C-0.4783226 6.04335481 -0.06032783 3.25770263 0 0 Z " fill="#CEECF7" transform="translate(1128,318)"/>
<path d="M0 0 C0 0.99 0 1.98 0 3 C-1.65 3.33 -3.3 3.66 -5 4 C-5.33 3.01 -5.66 2.02 -6 1 C-3 0 -3 0 0 0 Z " fill="#501D82" transform="translate(1059,145)"/>
<path d="M0 0 C0 0.99 0 1.98 0 3 C-1.65 3.33 -3.3 3.66 -5 4 C-5.33 3.01 -5.66 2.02 -6 1 C-3 0 -3 0 0 0 Z " fill="#4C1D7F" transform="translate(950,145)"/>
<path d="M0 0 C0 0.99 0 1.98 0 3 C-1.65 3.33 -3.3 3.66 -5 4 C-5.33 3.01 -5.66 2.02 -6 1 C-3 0 -3 0 0 0 Z " fill="#4A1D7C" transform="translate(873,145)"/>
<path d="M0 0 C0 0.99 0 1.98 0 3 C-1.65 3.33 -3.3 3.66 -5 4 C-5.33 3.01 -5.66 2.02 -6 1 C-3 0 -3 0 0 0 Z " fill="#421D74" transform="translate(660,145)"/>
<path d="M0 0 C0 0.99 0 1.98 0 3 C-1.65 3.33 -3.3 3.66 -5 4 C-5.33 3.01 -5.66 2.02 -6 1 C-3 0 -3 0 0 0 Z " fill="#3F1D71" transform="translate(551,145)"/>
</svg>
